<svg width="164" height="86" viewBox="0 0 164 86" fill="none" xmlns="http://www.w3.org/2000/svg">
<path d="M110.904 0.00783861C115.113 -0.0686431 119.313 0.428488 123.507 0.891202C124.057 0.98298 124.67 0.954299 125.131 1.46673C129.354 5.50184 133.462 9.76251 137.447 14.2392C142.272 19.7764 146.998 25.5776 150.949 32.3749C152.677 35.4284 154.31 38.6693 155.293 42.3443C155.639 43.7209 155.967 45.155 155.87 46.6425L156.231 46.8318C156.158 46.937 156.018 47.1435 155.945 47.2448C153.018 37.2793 147.287 29.6713 141.518 22.8606C136.094 16.6426 130.274 11.1264 124.246 6.1302C123.846 5.7822 123.411 5.50305 122.937 5.47054C120.314 5.08813 117.693 4.50878 115.049 4.61012C114.691 4.56041 114.118 4.77838 114.305 5.44186C114.764 7.70189 115.925 9.50113 116.836 11.4266C113.571 9.23153 110.245 7.14358 107.244 4.29464C106.513 3.50496 105.544 2.74015 105.397 1.34053C105.547 0.772655 106.018 0.6369 106.379 0.460993C107.858 -0.0170179 109.392 -0.00363364 110.904 0.00783861ZM33.5924 15.417C34.1465 15.5432 34.8369 15.5776 35.1015 16.4036L34.6095 15.83C33.875 15.9103 33.1569 15.7267 32.4458 15.5107C24.0474 13.461 15.642 11.4954 7.23943 9.49539C7.47647 10.8931 7.71076 12.287 7.90094 13.6981C14.7338 17.8357 21.5405 22.1302 27.9985 27.35C31.969 30.677 36.0704 34.0881 39.083 39.1091C35.271 35.2315 31.058 32.22 26.8615 29.2602C19.8743 24.3042 12.7465 19.7611 5.59116 15.3118C5.23146 15.1149 5.04817 14.6197 4.84696 14.1914C3.24366 10.5359 1.62799 6.89083 0 3.2564C11.2044 7.26213 22.3881 11.4093 33.5924 15.417ZM17.6982 7.56232C25.1402 9.11872 32.658 10.178 40.1207 11.6025C43.1444 17.4208 46.0427 23.4284 49.6493 28.5776C50.5906 30.176 52.1175 30.4017 53.4557 30.8854C61.1403 33.3615 68.8869 35.4188 76.599 37.6923C78.3658 39.6368 80.0857 41.6827 81.8002 43.7267C78.8564 42.4284 76.1001 40.1951 73.0007 39.6961C64.8475 37.784 56.7027 35.8242 48.5495 33.9083C45.0077 27.7439 41.4548 21.5891 37.9129 15.4189C37.6993 14.9772 37.2721 14.9944 36.951 14.8262C30.2118 12.4839 23.503 9.96958 16.7638 7.65983C17.0725 7.62541 17.3854 7.58908 17.6982 7.56232ZM130.533 18.874C132.309 22.698 132.724 27.4323 132.586 31.9007C125.665 30.4514 118.739 29.0307 111.815 27.5948C110.664 27.3558 109.555 27.9581 108.445 28.2678C98.3945 31.417 88.3629 34.6808 78.3052 37.786C88.6813 32.742 99.1566 28.0766 109.555 23.1263C110.478 22.6827 111.443 23.2105 112.369 23.3998C118.222 24.8242 124.069 26.2831 129.922 27.7019C130.267 22.3615 128.446 16.4361 124.775 14.2774C127.082 14.2296 129.261 16.243 130.533 18.874ZM14.5423 24.5967C18.922 27.1588 23.2329 29.9447 27.5837 32.6005C22.1869 38.7171 16.6963 44.6731 11.2471 50.6903C14.8992 45.0689 18.8435 39.8318 22.5176 34.2296C19.6731 30.872 16.739 27.654 13.9703 24.1818C14.115 24.285 14.4003 24.4915 14.5423 24.5967ZM150.489 36.9217C151.86 40.4131 153.137 43.9944 154.436 47.5488C149.758 45.4743 145.243 42.4666 141.307 38.329C138.076 34.8586 135.118 30.0766 134.658 24.1875C138.373 31.3328 144.399 35.3978 150.489 36.9217ZM106.407 39.5947L106.962 39.5221C115.594 41.0957 124.22 42.719 132.847 44.3118C138.098 45.2295 143.325 46.3557 148.585 47.1053C147.125 47.2161 145.664 47.1358 144.208 46.9714C131.999 46.023 119.794 45.0555 107.588 44.1033C106.687 44.0651 105.805 44.3691 104.924 44.5756C94.4916 47.1626 84.0576 49.7037 73.6264 52.2945C72.4963 52.5297 71.3772 53.0574 70.2223 52.8911C82.3115 48.6368 94.34 43.9944 106.407 39.5947ZM56.015 48.2659C60.0998 50.197 64.2094 52.023 68.2888 53.9771C64.5678 58.654 60.8991 63.4188 57.1533 68.0555C58.5549 64.7132 60.1329 61.5297 61.5965 58.241C62.065 57.1186 62.721 56.1282 63.0132 54.8758C55.9006 50.6502 48.8568 46.1779 41.7911 41.784C46.5719 43.7611 51.2659 46.153 56.015 48.2659ZM109.101 46.8567C121.123 47.8567 133.16 48.6043 145.177 49.7133C140.917 52.805 136.961 56.6788 133.335 61.0708C129.093 66.3672 125.266 72.5163 122.866 79.8012C122.635 79.0708 123.136 78.4016 123.26 77.717C125.576 69.1358 129.561 61.5412 134.327 55.3136C135.193 54.023 136.296 53.0957 137.119 51.7592C127.37 50.9217 117.614 50.1186 107.861 49.3538C101.364 50.2142 94.8568 51.067 88.3684 52.0058C89.1085 51.4666 89.9409 51.4035 90.7526 51.2506C96.2101 49.8012 101.684 48.4437 107.143 47.002C107.787 46.8265 108.447 46.7776 109.101 46.8567ZM37.5257 57.3347C36.7346 59.6482 36.0759 62.0479 35.3551 64.4054C33.4753 64.3595 31.6065 63.698 29.7322 64.2371C20.3443 64.8834 11.5048 73.6482 8.04427 85.9426C8.57072 78.8681 10.8502 72.1415 14.268 66.9197C17.9835 61.2983 23.1157 57.5526 28.5388 56.5756C31.5362 56.0823 34.6012 56.2754 37.5257 57.3347ZM147.549 60.1186C154.01 60.1721 160.214 64.9599 164 72.241C163.316 72.9886 162.833 74.3021 162.009 74.6692C159.346 71.6176 156.285 69.1932 152.933 68.0096C148.478 66.327 143.682 66.6578 139.341 68.8088C133.831 71.5048 129.162 77.3843 126.721 84.8279C126.663 85.1205 126.553 85.7056 126.495 86C126.454 85.7421 126.412 85.4846 126.368 85.2275C127.129 77.7648 130.042 70.7744 134.315 66.1913C138.052 62.1129 142.808 59.8777 147.549 60.1186Z" fill="black"/>
</svg>
