<svg width="139" height="100" viewBox="0 0 139 100" fill="none" xmlns="http://www.w3.org/2000/svg">
<path opacity="0.25" d="M43.9988 59.0681C43.9679 59.5022 43.9679 59.9362 43.9988 60.4012V68.4617H38.2713C38.2094 68.2136 38.1784 40.8701 38.2713 40.4671C38.519 40.4051 43.4106 40.3741 43.7821 40.4671L44.0298 42.2652C44.1227 42.1722 44.2155 42.1722 44.2465 42.1102C45.3301 40.4981 47.0638 39.475 49.0142 39.32C51.3981 38.948 53.8439 39.568 55.7634 41.0561C56.9089 42.0172 57.8067 43.2572 58.364 44.6523C58.8903 45.8924 59.2309 47.2255 59.3857 48.5585C59.5095 49.6436 59.5714 50.7287 59.5095 51.8137C59.4785 54.0768 58.8594 56.278 57.7758 58.2311C56.5374 60.4012 54.4012 61.8893 51.9244 62.2923C50.7789 62.5093 49.6025 62.5093 48.426 62.2923C47.1257 62.0753 45.9493 61.4243 45.1134 60.4012C44.8038 60.0292 44.5251 59.6572 44.2155 59.2851L44.0298 59.0371L43.9988 59.0681V59.0681ZM53.782 50.8217C53.782 50.2946 53.7201 49.7676 53.6582 49.2406C53.5653 48.3105 53.3176 47.3805 52.9151 46.5434C52.3888 45.3344 51.3672 44.4663 50.0978 44.1253C49.5096 44.0013 48.8904 43.9703 48.3022 44.0323C46.909 44.1253 45.6397 44.9003 44.8966 46.0784C44.4013 46.9154 44.1227 47.8145 43.9988 48.7755C43.8131 49.9536 43.8131 51.1627 43.9369 52.3717C43.9988 53.1468 44.1846 53.9218 44.4942 54.6659C44.9586 55.999 46.0731 57.022 47.4353 57.363C47.9926 57.487 48.5499 57.549 49.1381 57.549C50.1907 57.549 51.1814 57.146 51.9244 56.402C52.4198 55.9059 52.7913 55.3169 53.039 54.6969C53.5343 53.4568 53.782 52.1547 53.782 50.8217V50.8217ZM116.444 62.1683H111.15C110.871 61.3933 110.809 60.5872 110.5 59.7812C110.407 59.8432 110.314 59.8742 110.283 59.9052C109.261 61.2072 107.775 62.1063 106.134 62.3543C105.02 62.6333 103.874 62.6953 102.729 62.5713C100.933 62.3853 99.2615 61.5793 97.9921 60.2772C96.9705 59.2231 96.3822 57.8591 96.2893 56.371C96.2274 55.5649 96.2893 54.7589 96.4751 53.9838C96.8466 52.4337 97.8373 51.1007 99.2615 50.3256C100.221 49.7676 101.274 49.3956 102.357 49.1786C103.069 49.0546 103.812 48.9616 104.525 48.8375L107.001 48.4655L108.797 48.1555C108.983 48.1245 109.138 48.0625 109.323 48.0005C110.19 47.7525 110.685 46.8844 110.438 46.0164C110.345 45.2723 109.881 44.6523 109.199 44.3733C108.766 44.1563 108.302 44.0323 107.806 43.9703C106.877 43.8153 105.918 43.8153 104.989 43.9703C103.936 44.1253 103.069 44.8693 102.729 45.8614C102.605 46.1714 102.512 46.5124 102.388 46.8534H97.0633V46.4814C97.1562 45.5824 97.3729 44.6833 97.7135 43.8463C98.3636 42.1722 99.7568 40.9011 101.46 40.3741C102.419 40.0641 103.379 39.878 104.37 39.816C105.67 39.723 106.97 39.723 108.271 39.816C109.664 39.909 111.026 40.2191 112.295 40.7151C113.193 41.0871 114.029 41.6451 114.648 42.3892C115.268 43.1022 115.639 43.9703 115.732 44.9003C115.763 45.2723 115.794 45.6444 115.794 45.9854V57.673C115.794 58.4171 115.794 59.1611 115.856 59.9052C115.887 60.5562 116.041 61.1762 116.32 61.7653C116.382 61.9513 116.413 62.0753 116.444 62.1683V62.1683ZM110.438 51.2867L110.035 51.3797C109.014 51.6277 107.992 51.8757 106.97 52.0927C105.918 52.3097 104.896 52.6198 103.936 53.0538C103.348 53.3018 102.853 53.6738 102.388 54.1388C101.46 55.1929 101.583 56.774 102.605 57.673C102.729 57.7971 102.884 57.8901 103.069 57.9831C103.503 58.2001 103.998 58.3551 104.494 58.3551C105.36 58.3861 106.196 58.2621 107.032 58.0141C108.085 57.735 109.014 57.146 109.726 56.34C110.159 55.8749 110.438 55.2549 110.438 54.6039C110.438 53.5808 110.438 52.5578 110.5 51.5347C110.469 51.4727 110.438 51.3797 110.438 51.2867ZM37.1877 62.1683H31.8937C31.615 61.3933 31.5531 60.5872 31.2435 59.7812C31.1506 59.8122 31.0887 59.8742 30.9958 59.9672C30.098 61.1142 28.8287 61.9203 27.4045 62.2613C26.1043 62.6643 24.773 62.7883 23.4108 62.6023C21.4913 62.4163 19.7266 61.5173 18.4573 60.0602C17.5285 59.0061 17.0331 57.642 17.0022 56.247C16.9402 55.4099 17.0331 54.6039 17.2498 53.7978C17.6523 52.3097 18.643 51.0387 20.0362 50.3256C20.9959 49.7986 22.0176 49.4266 23.1012 49.2406C23.999 49.0856 24.8968 48.9616 25.7947 48.8375C26.6925 48.7135 27.7451 48.5275 28.7048 48.3725C29.1383 48.3105 29.5717 48.2175 30.0051 48.0935C30.2219 48.0315 30.4386 47.9075 30.6553 47.7835C30.9958 47.5665 31.2126 47.1945 31.2435 46.8224C31.4293 45.8614 30.9339 44.9003 30.0361 44.4663C29.5717 44.2493 29.1073 44.0943 28.612 44.0323C27.6832 43.8773 26.7234 43.8773 25.7637 44.0323C24.773 44.1873 23.9371 44.8693 23.5965 45.7994C23.4417 46.1404 23.3489 46.5124 23.1941 46.9154H17.8071V46.6054C17.9 45.6134 18.1477 44.6523 18.5192 43.7533C19.1693 42.1722 20.5006 40.9631 22.1105 40.4361C23.0702 40.1261 24.0919 39.94 25.1135 39.878C26.4138 39.785 27.7141 39.785 28.9835 39.878C30.5315 39.971 32.0485 40.3121 33.4726 40.9631C34.0918 41.2421 34.6181 41.6141 35.1135 42.0792C36.0113 42.9782 36.5376 44.1873 36.5685 45.4584V58.8201C36.5376 59.4711 36.5995 60.1532 36.7543 60.8042C36.8472 61.1452 36.971 61.4553 37.0639 61.7653C37.0949 61.9203 37.1568 62.0133 37.1877 62.1683V62.1683ZM31.2126 51.2867L30.7482 51.3797C29.7575 51.6277 28.7358 51.8757 27.7141 52.0927C26.6925 52.2787 25.6708 52.5888 24.7111 52.9918C24.1538 53.2708 23.6275 53.6118 23.1941 54.0768C22.2343 55.0999 22.2962 56.681 23.3179 57.611C23.4417 57.7351 23.5965 57.8281 23.7204 57.9211C24.1848 58.2001 24.7111 58.3241 25.2683 58.3551C25.9495 58.3861 26.6306 58.2931 27.3117 58.1381C28.3643 57.9211 29.324 57.394 30.129 56.681C30.7482 56.154 31.1197 55.4409 31.1816 54.6349C31.1816 53.8288 31.2435 52.9918 31.2745 52.1857C31.2435 51.9067 31.2126 51.6277 31.2126 51.2867V51.2867ZM87.0325 31.7866V62.1373C86.7848 62.1993 82.2957 62.2303 81.8003 62.1373V31.7866C82.048 31.7246 86.5681 31.7246 87.0325 31.7866ZM66.2896 62.1683H60.7169V40.5911C60.9646 40.5291 65.3918 40.4981 65.98 40.5911L66.4135 43.1952C66.4754 43.1332 66.5373 43.0402 66.5683 42.9782C66.6921 42.7302 66.8159 42.4822 66.9707 42.2652C67.6828 41.0871 68.9212 40.2811 70.3144 40.1571C70.8407 40.0951 71.3979 40.0951 71.9552 40.0951C72.141 40.1261 72.2958 40.1571 72.4815 40.2191V45.7064C72.2029 45.7064 71.9242 45.6444 71.6456 45.6444C70.5001 45.6444 69.3546 46.0784 68.5187 46.8844C67.5899 47.7525 66.9398 48.8375 66.5683 50.0466C66.3515 50.7907 66.2277 51.5347 66.2587 52.3097V62.1683H66.2896ZM79.9118 62.1683H74.5248V40.4981H79.9118C79.9737 40.7151 80.0047 61.7343 79.9118 62.1683ZM94.4627 62.1683H89.0758V40.4981H94.4008C94.5247 40.7151 94.5556 61.6723 94.4627 62.1683ZM88.89 36.8709V31.7556H94.277V36.8399C93.9983 36.9329 89.3854 36.9329 88.89 36.8709ZM74.6487 31.7556H79.9737C80.0666 32.0036 80.0666 36.0028 79.9737 36.8399H74.6487C74.5868 36.6539 74.5868 32.1586 74.6487 31.7556ZM122.017 34.6387C122.017 36.3438 120.623 37.7079 118.921 37.7079C117.218 37.7079 115.856 36.3128 115.856 34.6077C115.856 32.9027 117.249 31.5386 118.921 31.5386C120.654 31.5386 122.017 32.9027 122.017 34.6387ZM121.614 34.6387C121.614 33.1507 120.407 31.9416 118.921 31.9416C117.435 31.9416 116.227 33.1507 116.227 34.6387C116.227 36.1268 117.435 37.3359 118.921 37.3359C120.376 37.3669 121.583 36.2198 121.614 34.7318V34.6387V34.6387Z" fill="black"/>
<path opacity="0.25" d="M119.703 34.9414C120.461 35.2289 120.367 35.8677 120.367 36.5065H119.893C119.893 36.4107 119.893 36.2829 119.861 36.1871V35.7719C119.83 35.4844 119.609 35.2608 119.324 35.2289C119.04 35.2289 118.724 35.2289 118.408 35.165V36.5384H117.871C117.776 35.3886 117.776 34.2387 117.871 33.0889C118.503 33.0569 119.166 33.0889 119.798 33.1847C120.177 33.2486 120.461 33.5999 120.461 33.9832C120.556 34.3665 120.335 34.7817 119.956 34.9095L119.703 34.9414V34.9414ZM118.345 34.7498H119.166C119.293 34.7178 119.451 34.6859 119.577 34.622C119.766 34.5262 119.861 34.3026 119.83 34.079C119.861 33.8874 119.735 33.6638 119.545 33.5999C119.166 33.4722 118.756 33.4402 118.345 33.5041V34.7498V34.7498Z" fill="black"/>
</svg>
