<svg width="139" height="100" viewBox="0 0 139 100" fill="none" xmlns="http://www.w3.org/2000/svg">
<g opacity="0.25">
<path d="M53.3563 31.4076L65.6185 37.1343C65.6185 37.1343 67.2946 36.3352 68.9266 35.5805C68.9266 35.5805 69.2354 35.403 69.2354 35.0478C69.2354 35.0478 69.2354 34.6483 68.8384 34.4707C68.8384 34.4707 63.3248 31.8959 57.8113 29.3655L67.6916 24.7931L68.5296 24.6155L69.3236 24.7931L84.144 31.674C84.144 31.674 85.6437 32.3842 85.6437 33.3165C85.6437 33.3165 85.6437 34.2487 84.144 34.9146L72.5435 40.2862L84.144 45.6577C84.144 45.6577 85.6437 46.3236 85.6437 47.3447C85.6437 47.3447 85.6437 48.2325 84.144 48.9872L69.3236 55.7793C69.3236 55.7793 69.0148 56.0457 68.5296 56.0457L67.6916 55.7793L57.8113 51.2513L68.8384 46.1905L69.2354 45.6133C69.2354 45.6133 69.2354 45.347 68.9266 45.0362L65.6185 43.5269L53.3563 49.2536V42.7722L58.6934 40.2862L53.3563 37.889V31.4076Z" fill="black"/>
<path d="M16.2167 59.7138V75.3847H21.3331V68.7259V62.9107H30.155C31.9635 62.9107 31.9639 64.2422 31.9639 64.2422C31.9639 65.4853 30.155 65.4854 30.155 65.4854H24.4649C23.4063 65.4854 22.8329 66.3291 22.8329 66.3291L21.3331 68.7259H30.0672C31.9639 68.7259 31.9639 70.3685 31.9639 70.3685C31.9639 72.011 30.0672 72.0559 30.0672 72.0559H24.4649C23.4063 72.0115 22.8329 72.9432 22.8329 72.9432L21.3331 75.3847H30.155C37.6535 75.3403 37.654 71.1238 37.654 71.1238C37.654 68.3715 34.1252 67.3943 34.1252 67.3943C37.6539 66.5065 37.654 63.7544 37.654 63.7544C37.654 59.6703 30.155 59.7138 30.155 59.7138H16.2167Z" fill="black"/>
<path d="M53.7977 59.7138L63.4134 75.3845H57.4146L55.7826 72.5434H46.9609L48.3724 70.1462C48.3724 70.1462 48.9017 69.2139 50.0044 69.2139H53.8859L50.4896 63.4428L43.6528 75.3845H37.654L47.2697 59.7138H53.7977Z" fill="black"/>
<path d="M80.2187 59.7138V70.812C80.2187 70.812 80.2187 75.3401 75.0139 75.3845H66.5451C66.5451 75.3845 65.3982 75.3401 64.9131 74.4523L63.4134 72.0551H72.9849C72.9849 72.0551 75.1021 72.0107 75.1021 70.3681V59.7138H80.2187Z" fill="black"/>
<path d="M96.4506 59.7138L105.978 75.3845H100.067L98.3914 72.5434H89.5256L90.9811 70.1462C90.9811 70.1462 91.5546 69.2139 92.6573 69.2139H96.5388L93.1425 63.4428L86.2174 75.3845H80.2187L89.8343 59.7138H96.4506Z" fill="black"/>
<path d="M122.783 59.7138V70.812C122.783 70.812 122.739 75.3401 117.667 75.3845H109.11C109.11 75.3845 107.919 75.3401 107.434 74.4523L105.978 72.0551H115.594C115.594 72.0551 117.755 72.0107 117.755 70.3681V59.7138H122.783Z" fill="black"/>
</g>
</svg>
