<svg width="64" height="48" viewBox="0 0 64 48" fill="none" xmlns="http://www.w3.org/2000/svg">
<circle cx="51" cy="30" r="10" fill="#FE4D01"/>
<circle cx="13" cy="30" r="10" fill="#FE4D01"/>
<path d="M19.2125 6.0625C18.2375 8.9625 17.4125 11.25 17.3375 11.25C17.25 11.25 16.7125 11.1625 16.125 11.0625C15.5375 10.9625 14.5625 10.875 13.9625 10.875H12.8625L12.9375 12.65C12.9875 13.6375 13.0375 14.5125 13.0625 14.5875C13.1 14.7 13.3875 14.75 13.9125 14.75C14.6625 14.75 15.975 14.9375 16.1 15.05C16.125 15.0875 16 15.575 15.8125 16.15L15.4625 17.1875L13.075 17.2C10.85 17.2 10.6125 17.225 9.5625 17.55C5.0625 18.9125 1.7875 22.175 0.4125 26.6875C0.1 27.75 0.075 27.95 0.075 30.25C0.075 32.55 0.1 32.75 0.4125 33.8125C1.525 37.45 3.9625 40.3875 7.25 42.0625C8.1625 42.525 9.8375 43.075 10.8 43.2375C11.2 43.3125 9.35 43.35 5.725 43.3625L0 43.375V45.25V47.125H32H64V45.25V43.375L58.2875 43.3625C54.65 43.35 52.8 43.3125 53.2 43.2375C54.1625 43.075 55.8375 42.525 56.75 42.0625C60.0375 40.3875 62.475 37.45 63.5875 33.8125C63.9 32.75 63.925 32.55 63.925 30.25C63.925 27.95 63.9 27.75 63.5875 26.6875C62.2125 22.175 58.95 18.9125 54.4375 17.5375C53.375 17.225 53.175 17.2 50.875 17.2C48.575 17.2 48.375 17.225 47.325 17.5375C42.4625 19.0375 39.0375 22.675 38.0125 27.4375L37.7875 28.4375L36.5875 28.475C35.1875 28.5125 35.2375 28.5875 35.55 27.1125C36.675 21.8 40.7625 17.25 45.9375 15.5125C48.1375 14.775 48.625 14.7375 55.35 14.6625L61.5 14.6V12.7375V10.875H50.025H38.55L38.3375 10.425C38 9.725 36.95 8.7 36.1625 8.3L35.4375 7.9375L29.0875 7.9C24.0375 7.875 22.7375 7.8375 22.775 7.7125C22.8 7.625 23.0375 6.8875 23.3125 6.0875L23.8125 4.625H26.9H30V2.75V0.875H25.4625H20.9375L19.2125 6.0625ZM22.45 17.8125C25.625 20.2 27.9 23.8375 28.55 27.625C28.65 28.2125 28.7625 29.4875 28.8125 30.4625L28.9125 32.25H33.3625H37.8125L38.075 33.3375C38.95 36.9875 41.4375 40.1875 44.7625 41.9375C45.725 42.4375 47.5625 43.075 48.5125 43.2375C48.925 43.3 42.525 43.35 32 43.35C22.075 43.35 15.0875 43.3 15.45 43.2375C15.8 43.175 16.5625 42.9875 17.1375 42.8C21.3 41.4875 24.55 38.125 25.825 33.8125C26.275 32.275 26.3875 29.35 26.0625 27.75C25.3375 24.2125 23.3125 21.1875 20.35 19.25L19.15 18.475L19.525 17.35L19.9 16.2375L20.7375 16.7C21.1875 16.95 21.9625 17.45 22.45 17.8125ZM14.125 21.1125C14.125 21.175 13.475 23.125 12.6875 25.45C11.1375 29.9875 11.0125 30.575 11.4875 31.3C11.875 31.8875 12.35 32.125 13.175 32.125C13.8875 32.125 13.9375 32.1 14.425 31.5875C14.9125 31.0875 15.025 30.7875 16.375 26.7125C17.1625 24.325 17.85 22.375 17.9125 22.375C18.125 22.375 19.075 23.1125 19.7125 23.7625C21.1125 25.2125 21.9 26.6875 22.2625 28.6C22.4875 29.8 22.35 31.975 21.9625 33.0875C20.9625 36 18.75 38.175 15.825 39.15C15.0625 39.4 14.6875 39.4375 13.125 39.4375C11.5625 39.4375 11.1875 39.4 10.425 39.15C7.4625 38.1625 5.2125 35.9125 4.225 32.95C3.975 32.1875 3.9375 31.8125 3.9375 30.25C3.9375 28.2 4.1375 27.375 4.975 25.825C6.3125 23.4125 8.9 21.525 11.5 21.0875C12.125 20.9875 14.125 21 14.125 21.1125ZM53.7125 21.4125C56.6375 22.425 58.8 24.625 59.775 27.55C60.025 28.3125 60.0625 28.6875 60.0625 30.25C60.0625 31.8125 60.025 32.1875 59.775 32.95C58.8 35.875 56.6375 38.075 53.7125 39.0875C52.4625 39.525 50.15 39.625 48.8375 39.3125C45.6 38.5375 42.875 35.9875 41.95 32.8375L41.775 32.25H47.575H53.375V30.375V28.5H47.5625H41.75L41.825 28.15C41.9875 27.3875 42.175 26.8875 42.6375 26C43.55 24.225 45.1375 22.7125 46.95 21.85C48.5 21.125 49.175 21 51.125 21.05C52.525 21.0875 52.9625 21.15 53.7125 21.4125Z" fill="black"/>
</svg>
