<svg width="93" height="72" viewBox="0 0 93 72" fill="none" xmlns="http://www.w3.org/2000/svg">
<path opacity="0.25" d="M46.4798 1.57471C54.6886 7.88289 65.8489 10.589 76.4282 11.4118V19.9964C74.1869 19.8776 72.3606 22.2089 72.3606 23.6259H91.287V47.981H73.7442C74.1592 50.2391 77.1937 51.2357 79.3796 51.1168C67.7213 61.3836 54.8454 70.343 46.5352 70.6996C38.9535 70.4528 26.1422 62.2613 13.4601 51.2448C18.7174 51.3271 19.1878 47.9901 19.1878 47.9901H1.14685V23.6442H20.0179C19.9257 21.8706 18.2747 20.2067 16.3101 20.0147V11.4301C27.5626 10.8998 37.2749 8.2303 46.4798 1.57471Z" fill="black"/>
<path opacity="0.25" d="M74.2514 13.2768C74.2514 14.8127 74.2514 16.9154 74.2514 18.6616C72.1854 19.0913 70.0917 21.8706 70.0917 23.6442H68.3854C68.5514 20.2798 70.4514 18.6433 72.5451 17.528C72.5451 16.4675 72.5451 15.8915 72.5451 14.8584C63.5154 14.639 52.9915 10.7901 46.4521 6.42008C40.5031 10.3878 29.3981 14.6299 20.2762 14.8584C20.2762 15.4527 20.2762 16.6229 20.2762 17.5371C22.5912 18.7256 24.0946 21.0569 24.2053 23.6442H22.416C22.0286 20.9746 20.4883 19.5576 18.6067 18.5153C18.6067 16.8149 18.6067 15.1601 18.6067 13.3957C28.9185 12.8197 40.5215 8.86108 46.4706 4.29907C52.1706 8.91593 64.1149 12.518 74.2514 13.2768Z" fill="black"/>
<path opacity="0.25" d="M50.5012 11.0187L50.4828 13.2951L47.5774 11.8781V23.6442H45.2992C45.2992 19.7953 45.2992 11.8781 45.2992 11.8781L42.4584 13.2768L42.4769 11.037C42.4769 11.037 45.7604 9.40051 46.4798 8.87939C47.2362 9.41879 50.5012 11.0187 50.5012 11.0187Z" fill="black"/>
<path opacity="0.25" d="M31.7962 23.6442C31.7962 22.5105 31.8516 20.6181 31.5749 20.3072C31.0122 21.322 30.5234 22.5745 30.053 23.5162C29.5734 22.5654 29.0753 21.4409 28.4666 20.6638L28.402 23.6442H26.336V16.1475C27.4612 15.9555 27.7933 15.8549 28.3836 15.7635L30.0069 19.2467L31.7132 15.0961C32.4142 14.895 33.1244 14.7396 33.8438 14.6116V23.635L31.7962 23.6442Z" fill="black"/>
<path opacity="0.25" d="M42.2555 14.2458C42.2555 17.5188 42.2555 20.6272 42.2555 21.8797C42.2371 23.6533 41.6284 23.6076 38.5846 23.6258C36.0851 23.6441 35.2642 23.6807 35.2365 21.194V15.9829C35.2827 14.0081 35.7992 14.1087 38.0681 12.9842C41.6007 11.2837 42.1541 11.8597 42.2555 14.2458ZM40.2725 15.1692C40.2725 13.9533 37.6715 15.4343 37.5055 15.6081C36.9798 16.1383 37.1089 19.5484 37.1273 20.9837C37.1273 21.3037 37.2934 21.6785 37.6992 21.6785C38.354 21.6785 39.3133 21.6968 39.8575 21.6785C40.0696 21.6968 40.2633 21.5414 40.2817 21.3311C40.2817 21.2946 40.2817 21.2488 40.2725 21.2123C40.2725 20.8283 40.2725 15.1692 40.2725 15.1692Z" fill="black"/>
<path opacity="0.25" d="M57.9445 15.3796V21.6695C57.9445 23.6351 57.2435 23.6351 54.4765 23.6351C51.8663 23.6351 50.7134 23.6351 50.7134 21.6695C50.7134 21.6695 50.7134 15.9739 50.7134 13.8529C50.7134 11.0096 53.0377 12.2255 54.7993 12.9204C56.4688 13.5786 57.9445 13.8529 57.9445 15.3796ZM54.412 14.9774C53.4527 14.694 52.8071 14.5294 52.8071 15.5716C52.8071 17.3452 52.8071 20.3073 52.8071 20.3073C52.8071 21.8341 53.6003 21.6787 54.4673 21.6787C55.0668 21.6787 55.943 21.8158 55.9338 20.9016C55.9338 19.0091 55.9338 18.296 55.9338 16.2664C55.943 15.1602 55.0207 15.1511 54.412 14.9774Z" fill="black"/>
<path opacity="0.25" d="M66.098 16.4127C67.0941 17.5006 66.8635 20.3256 65.9965 20.6181C66.9097 21.2946 66.7067 23.6534 66.7067 23.6534H64.7514C64.7514 21.3038 64.2902 21.2581 63.1465 21.2672C62.3164 21.2489 62.547 21.2672 61.5785 21.2672V23.6534H59.6047V14.7396C62.3349 15.3156 65.563 15.8276 66.098 16.4127ZM61.597 17.208V19.2833C62.8883 19.3473 63.2111 19.3565 64.1057 19.4113C64.8252 19.4113 64.6591 18.0126 64.4562 17.7566C64.3087 17.5372 62.6853 17.3269 61.597 17.208Z" fill="black"/>
<path opacity="0.25" d="M89.1012 25.9207H3.45273V45.6132H89.1012V25.9207Z" fill="#F6F6F6"/>
<path opacity="0.25" d="M23.6151 47.9811C23.6243 49.7638 22.8126 51.4551 21.4014 52.5614C29.7671 59.9849 41.0473 66.3022 46.5997 66.6679C52.2352 66.3022 63.2111 59.5644 71.6044 52.5065C69.9165 51.0254 69.4369 49.773 69.4276 47.9811H71.0878C71.2354 50.1295 73.532 51.8665 74.4913 52.2688C62.1781 62.3528 54.3843 67.2805 46.4891 68.3135C38.2802 67.1799 30.3297 62.307 18.4038 52.3602C20.064 51.6288 21.7427 49.9192 21.7335 47.9719L23.6151 47.9811Z" fill="black"/>
<path opacity="0.25" d="M79.1491 49.1054C79.4073 49.3523 79.4073 49.7637 79.1491 50.0197C78.9 50.2756 78.485 50.2756 78.2267 50.0197C78.1068 49.9008 78.033 49.7362 78.0423 49.5625C78.0423 49.206 78.319 48.9226 78.6787 48.9134C78.8631 48.9134 79.0292 48.9866 79.1491 49.1054ZM79.2228 49.0414C78.9277 48.7489 78.4481 48.7489 78.1622 49.0414C77.8762 49.334 77.867 49.8094 78.1622 50.0928C78.4573 50.3854 78.9369 50.3854 79.2228 50.0928C79.3612 49.9557 79.4442 49.7637 79.4442 49.5625C79.4534 49.3706 79.3704 49.1786 79.2228 49.0414ZM78.8078 49.526C78.7617 49.5443 78.7156 49.5443 78.6694 49.5443H78.5219V49.2517H78.651C78.7156 49.2517 78.7709 49.2609 78.8262 49.2791C78.8908 49.3248 78.9092 49.4163 78.8539 49.4894C78.8447 49.5077 78.8262 49.5168 78.8078 49.526ZM78.3927 49.974H78.5219V49.654H78.6326C78.6879 49.654 78.7432 49.6631 78.7894 49.6814C78.8447 49.7271 78.8724 49.8003 78.8631 49.8642V49.974H79.0015C79.0015 49.9557 79.0015 49.9465 79.0015 49.9282C79.0015 49.91 79.0015 49.8825 79.0015 49.8642V49.782C79.0015 49.7363 78.983 49.6905 78.9554 49.654C78.9185 49.6083 78.8724 49.5808 78.8078 49.5717C78.8539 49.5625 78.8908 49.5534 78.9277 49.5351C78.983 49.4986 79.0107 49.4346 79.0107 49.3706C79.0199 49.2791 78.9646 49.1969 78.8816 49.1603C78.8078 49.1329 78.734 49.1237 78.6602 49.1329H78.3651V49.9557L78.3927 49.974Z" fill="black"/>
<path opacity="0.25" d="M73.0985 31.4792V33.9111H71.2262C71.2262 32.3843 71.2262 31.3878 70.4883 31.4335C69.8519 31.4335 69.9626 32.1649 69.9534 32.7134C69.9534 34.3408 70.8019 34.6425 71.6597 35.2733C72.8034 36.1235 73.2 36.672 73.2092 39.0765C73.2092 40.8501 72.6097 42.2123 70.6636 42.2123C68.3762 42.2123 68.0626 41.1883 68.0626 37.3211C68.3577 37.3211 69.5568 37.3211 69.9534 37.3211C69.9534 37.952 69.9534 38.8753 69.9534 39.2045C69.9534 39.5336 69.8888 40.3107 70.6636 40.3107C71.134 40.3107 71.3092 39.9267 71.3092 38.8296C71.3092 37.5771 70.9403 37.184 70.516 36.8732C69.6767 36.2424 68.081 35.6207 68.081 33.6917C68.081 31.9455 67.8043 29.3034 70.682 29.3308C72.3883 29.3491 73.1078 30.2816 73.0985 31.4792Z" fill="black"/>
<path opacity="0.25" d="M9.72465 34.3863H11.0897V29.6506H12.9621V42.0933H11.0805V36.9096H9.7431V42.0933H7.84308V29.6506H9.71543C9.72465 29.6506 9.72465 34.3863 9.72465 34.3863Z" fill="black"/>
<path opacity="0.25" d="M27.5073 40.018C28.1898 40.018 28.7063 40.018 29.3796 40.018V42.0933H25.4966V29.6506H27.4981L27.5073 40.018Z" fill="black"/>
<path opacity="0.25" d="M33.687 31.6162H31.787V34.5143C32.5433 34.5143 33.0137 34.5143 33.6686 34.5143V36.6902H31.787V39.9997C32.488 39.9997 32.9491 39.9997 33.6593 39.9997V42.0933H29.7947V29.6506H33.6778L33.687 31.6162Z" fill="black"/>
<path opacity="0.25" d="M35.8637 29.6506C36.1127 30.9671 36.3341 32.2653 36.7307 33.719C37.155 32.2562 37.2657 31.0494 37.6807 29.6598H39.5346C39.0181 32.2836 38.3356 34.5509 37.6531 36.9828C37.6531 38.9758 37.6531 40.0546 37.6531 41.9836H35.7623C35.7623 39.9357 35.7623 38.5004 35.7623 36.9462C35.1351 34.4961 34.4156 32.1099 33.9084 29.6598L35.8637 29.6506Z" fill="black"/>
<path opacity="0.25" d="M55.8508 29.55C56.0814 31.9636 56.3304 34.5052 56.5887 36.9187C56.5887 36.9187 57.1882 31.7259 57.4833 29.55H59.3465L57.6032 41.9927H55.6018L53.9416 29.55H55.8416H55.8508Z" fill="black"/>
<path opacity="0.25" d="M61.6062 41.9927H59.7061V29.55H61.5969L61.6062 41.9927Z" fill="black"/>
<path opacity="0.25" d="M81.9899 29.55C82.4049 31.4516 82.7831 33.399 83.2074 35.2548L83.1336 29.55H85.0244V41.883H82.8108C82.3865 39.5609 81.9807 37.385 81.5195 35.0537L81.5748 41.883H79.5826V29.55H81.9899Z" fill="black"/>
<path opacity="0.25" d="M78.8539 31.9087C78.8539 33.0972 78.8539 39.8899 78.8539 39.8899C78.8539 41.1973 77.5811 42.3218 76.2714 42.3035C75.183 42.2852 73.8272 41.7093 73.8272 39.8625C73.8272 38.0889 73.8272 35.2091 73.8272 31.863C73.8272 29.4677 75.3675 29.2483 76.4374 29.2392C77.4243 29.23 78.8539 29.614 78.8539 31.9087ZM75.6073 31.9453C75.6073 33.5361 75.6073 36.5073 75.6073 39.3506C75.6073 40.4202 76.9262 40.7128 76.9262 39.5334C76.9262 36.6719 76.9262 32.6675 76.9262 31.9544C76.9447 31.1133 75.6165 31.0859 75.6073 31.9453Z" fill="black"/>
<path opacity="0.25" d="M46.775 29.6506C47.7526 29.6506 48.426 30.3363 48.4352 31.7899C48.4352 34.4321 48.4352 37.6319 48.4536 39.8809C48.4813 41.0694 47.5313 42.0659 46.3322 42.0933C46.2861 42.0933 46.2492 42.0933 46.2031 42.0933C45.5206 42.0933 44.5982 42.0933 43.5099 42.0933V29.6506H46.775ZM45.4007 31.5339V39.9997C45.6774 39.9997 45.6589 39.9997 46.074 39.9997C46.3691 39.9631 46.5721 39.698 46.5352 39.4146C46.5352 39.4146 46.5352 39.4146 46.5352 39.4055C46.5352 37.8787 46.5167 32.5945 46.5167 32.1191C46.5167 31.278 45.4007 31.5339 45.4007 31.5339Z" fill="black"/>
<path opacity="0.25" d="M65.4062 29.55C66.3563 29.55 67.4446 30.0986 67.4446 31.7442V39.9631C67.4446 41.2979 66.633 41.9927 65.0281 41.9927H62.4271V29.55H65.4062ZM65.0465 31.5248C64.7053 31.5248 64.4286 31.5248 64.4286 31.5248V39.9997C65.5354 39.9997 65.6645 39.954 65.6737 39.4054C65.6737 39.4054 65.6737 34.3406 65.6737 32.2105C65.6645 31.8539 65.397 31.5614 65.0465 31.5248Z" fill="black"/>
<path opacity="0.25" d="M22.7296 29.6506C24.5558 29.6506 24.768 31.7808 24.768 33.0881C24.768 33.6824 24.8141 34.7977 23.8272 35.776C24.4451 36.3245 24.768 36.7633 24.7772 38.1164C24.7772 39.4146 24.7772 40.5117 24.7772 42.1116H23.5413C23.3199 42.1116 22.7757 41.9287 22.7849 41.563C22.7849 40.7768 22.7849 39.1038 22.7849 38.1713C22.7849 37.4033 22.3238 37.321 21.8903 37.321H21.5582V42.0933H19.5291L19.5568 29.6506C20.3776 29.6506 20.6359 29.6506 22.7296 29.6506ZM21.549 31.6254V34.9257H22.2869C22.4806 34.9257 22.7019 34.7795 22.6927 34.2858C22.7112 33.719 22.6927 32.8596 22.6927 32.3202C22.7019 31.6345 22.2869 31.6345 21.549 31.6254Z" fill="black"/>
<path opacity="0.25" d="M54.4765 41.9837H52.7056C52.4935 40.978 52.4105 39.9998 52.226 38.9759H50.8886L50.5197 41.9837H48.7303C49.0993 37.8696 49.8095 33.6459 50.2245 29.541H52.9178L54.4765 41.9837ZM51.525 32.2106L51.11 36.6537H51.9585C51.9032 35.1727 51.7556 33.6916 51.525 32.2106Z" fill="black"/>
<path opacity="0.25" d="M17.6567 29.6506C18.1456 33.6732 18.5791 37.7141 19.031 42.0933H17.2878C17.1402 40.9871 16.9927 39.826 16.9004 39.1129H15.6092L15.2587 42.0933H13.4693C13.9028 37.9975 14.3548 33.9018 14.7514 29.6506H17.6567ZM16.1349 32.1739L15.9135 36.6628H16.6422C16.5038 35.0903 16.4024 33.7921 16.1349 32.1739Z" fill="black"/>
<path opacity="0.25" d="M42.6613 35.1453H39.2118V36.6903H42.6613V35.1453Z" fill="black"/>
<path opacity="0.25" d="M31.8331 47.9902H34.3511L35.6054 51.4094H35.7622L37.2933 47.9902H39.8021L36.62 54.1339V60.7163L34.3142 59.3907V54.1613L31.8331 47.9902Z" fill="black"/>
<path opacity="0.25" d="M26.5942 54.5268L32.0083 58.0649V55.5325L31.9345 55.2033L28.6971 53.3383L28.5403 53.2103C28.3927 53.1555 28.2913 53.0183 28.2728 52.8629V50.3671C28.2821 50.1477 28.4665 49.974 28.6879 49.974H31.1136V47.9901H27.6364C26.7141 47.9718 25.9393 48.694 25.9209 49.6174V53.2286C25.9209 53.7497 26.1699 54.2251 26.5942 54.5268Z" fill="black"/>
<path opacity="0.25" d="M46.0002 62.3711L43.7958 61.5574L42.9657 61.2648C42.6798 61.1643 42.4861 60.89 42.4769 60.5883V50.7055C42.4861 50.2941 42.8273 49.9741 43.2424 49.9832H46.0002V47.9994H41.8128C40.8904 47.9811 40.1157 48.7033 40.0972 49.6267V61.3105C40.0972 61.8317 40.3555 62.3162 40.789 62.6179C41.1487 62.9104 42.1079 63.4041 45.9725 64.6475V62.3893H46.0002V62.3711Z" fill="black"/>
<path opacity="0.25" d="M49.4959 47.9902H47.1347V64.5195C49.0347 64.2452 50.8978 63.715 52.6595 62.9562V60.7986L49.5051 61.7859L49.4959 47.9902Z" fill="black"/>
<path opacity="0.25" d="M58.8023 49.974V47.9901H54.9192C53.9969 47.9718 53.2221 48.694 53.2037 49.6174V60.2499C53.2498 62.4989 55.2789 61.5207 55.3988 61.4384C55.9061 61.1276 58.8392 59.3357 58.8392 59.3357V56.9495L56.3396 58.3392C55.3712 58.8877 55.5556 57.6443 55.5556 57.6443V54.7371H58.0367V52.8264H55.5556V50.9979L55.5464 50.6779C55.5556 50.2757 55.8877 49.9557 56.2935 49.9648H58.793V49.974H58.8023Z" fill="black"/>
<path opacity="0.25" d="M62.7038 49.974C62.5101 49.9648 62.3441 50.1203 62.3349 50.3214V50.7968C62.3441 50.9888 62.5009 51.1442 62.7038 51.1442H65.2403C65.9412 51.1168 66.5408 51.6562 66.5684 52.351V54.0972C66.4116 55.112 60.0198 58.6043 60.0198 58.6043L60.0014 56.2365L62.6946 54.728C65.4339 53.1921 63.3587 53.2469 63.3587 53.2469H61.265C60.5917 53.2744 60.029 52.7532 60.0106 52.0859V49.1512C60.0106 48.5112 60.6286 47.981 61.3941 47.981H61.8184H66.4024V49.9648L62.7038 49.974Z" fill="black"/>
</svg>
