<svg width="106" height="56" viewBox="0 0 106 56" fill="none" xmlns="http://www.w3.org/2000/svg">
<g opacity="0.25">
<path d="M63.5291 4.35268H57.5765V4.41606C57.7685 4.73293 57.8965 5.17656 57.8965 5.62019C57.8965 6.31732 57.4484 7.58483 57.3204 8.15521L53.544 18.929C53.032 20.3233 52.968 20.7036 52.0719 22.0344V22.0978H57.0004V22.0344C56.7444 21.5908 56.6164 21.2106 56.6164 20.7669C56.6164 20.0698 56.9364 19.1192 57.1284 18.6122L57.3844 17.8517H62.761C62.761 17.8517 63.081 18.8023 63.337 19.3727C63.5291 19.8797 63.5931 20.3867 63.5931 20.7035C63.5931 21.0838 63.5291 21.4007 63.337 22.0344V22.0978H70.5058V22.0344C69.7377 21.0838 69.3537 20.0064 68.7136 18.2319L63.5291 4.35268ZM58.3445 14.9364L60.0087 9.9931L61.7369 14.9364H58.3445ZM48.9996 18.1685C48.9996 19.7529 49.1276 21.2106 49.6396 22.0344V22.0978H42.5989V22.0344C43.303 20.8303 43.175 19.6262 43.175 18.2319V14.6195L42.2149 12.7816L38.8225 6.50745C38.3745 5.62019 37.9904 5.04981 37.2864 4.41606V4.35268H43.431V4.41606L47.0794 11.7676C47.0794 11.7676 47.9115 10.1198 48.1035 9.73959C48.4875 8.97909 48.9356 8.09183 49.1276 7.71158C49.4476 7.1412 49.7677 6.31732 49.7677 5.68357C49.7677 5.04981 49.5756 4.73293 49.3836 4.47943V4.35268H54.2481V4.41606L49.3196 14.0491L48.9356 14.7463L48.9996 18.1685ZM84.3952 22.0978H71.7859V22.0344C72.298 20.8937 72.362 19.943 72.362 18.2319V8.21858C72.362 6.12719 72.17 5.30331 71.7859 4.47943V4.41606H78.6346V4.47943C78.1866 5.68357 78.1226 6.3807 78.1226 8.28196V18.4854C78.8906 18.6122 79.7867 18.7389 80.7468 18.7389C82.795 18.7389 83.8832 18.5488 84.6512 18.2319H84.8433L84.3952 22.0978ZM28.9655 3.90905C23.397 3.90905 19.5566 7.33133 19.5566 12.1479C19.5566 19.1825 27.1093 20.1965 29.7336 17.915L29.2856 17.0278C26.9813 17.4714 24.9331 15.7603 24.9331 11.8944C24.9331 8.78896 26.5973 6.82432 28.9015 6.82432C31.5898 6.82432 33.254 9.48609 33.254 13.352C33.254 17.7249 30.6937 21.0204 25.9572 21.0204C20.5167 21.0204 16.4202 16.7743 13.86 12.5281C16.6763 11.4507 18.3404 9.35934 18.3404 6.50745C18.3404 2.83167 15.5241 0.233276 10.4676 0.233276H0.866649V0.296652C1.25069 1.12053 1.44271 2.64154 1.44271 4.73293V18.2319C1.44271 19.943 1.3787 20.8937 0.866649 22.0344V22.0978H7.97138V22.0344C7.52333 20.9571 7.39532 19.4994 7.39532 18.2319C7.39532 16.1405 7.39532 14.4928 7.39532 14.4928C7.45932 14.4928 8.1634 14.4928 8.29141 14.4928C13.2199 21.6542 18.8525 24.6328 24.8691 24.6328C33.574 24.6328 38.6945 19.1825 38.6945 13.1619C38.6945 8.02846 34.7901 3.90905 28.9655 3.90905ZM7.45932 11.6409V3.59218H9.44353C11.7478 3.59218 12.7079 4.92306 12.7079 7.07783C12.7079 9.67622 11.1717 11.7042 8.67545 11.7042C8.29141 11.6409 7.58734 11.6409 7.45932 11.6409Z" fill="black"/>
<path d="M34.6621 37.6248C34.6621 35.5968 34.8541 34.7095 35.2382 33.8856H29.7336V33.949C30.1176 34.7729 30.3097 35.5968 30.3097 37.6881V43.5187L22.1808 33.7589H17.1243V33.8222C17.5083 34.6461 17.7004 35.47 17.7004 37.5614V48.2085C18.9805 47.8916 20.6447 47.5113 22.0528 47.3846V42.1244H22.1168C22.1168 42.1244 26.9173 47.6381 27.9414 48.7155C29.2215 50.0464 30.1816 51.1237 31.0777 51.504H35.2382V51.4406C34.7901 50.5534 34.7261 49.7929 34.6621 48.6521V37.6248Z" fill="black"/>
<path d="M9.05948 55.4333C18.0844 55.4333 19.7486 51.6307 26.8533 51.5674H27.7494C27.3654 51.1871 26.4693 50.2365 25.4452 49.0324H24.9971C19.6846 49.0324 17.3803 50.9336 12.0038 50.9336C9.95557 50.9336 7.71534 50.4266 7.71534 50.4266V43.5187H9.63553C12.0038 43.5187 13.988 43.7088 14.564 43.8989H14.628V39.7162H14.5C14.052 39.8429 12.3878 40.033 9.50752 40.033H7.65134V33.1251H11.4917C13.4119 33.1251 14.7561 33.2519 15.8442 33.6955L15.3961 29.7028H0.866638V29.7662C1.25068 30.5901 1.44269 32.1111 1.44269 34.2025V50.49C1.44269 52.2011 1.37869 53.0884 0.866638 54.2291V54.2925C0.866638 54.2925 4.70703 55.4333 9.05948 55.4333Z" fill="black"/>
<path d="M57.7685 47.7648V37.6881C57.7685 35.5968 57.9605 34.7729 58.3445 33.949V33.8856H51.4318V33.949C51.8159 34.7729 52.0079 35.5968 52.0079 37.6881V47.7648C52.0079 49.476 51.9439 50.4266 51.4318 51.5674V51.6308H58.3445V51.5674C57.8325 50.4266 57.7685 49.476 57.7685 47.7648Z" fill="black"/>
<path d="M44.3911 41.554H43.879V36.9276H46.1833C47.9115 36.9276 48.9996 37.1178 49.8317 37.498H49.8957L49.4476 33.8856H37.5424V33.949C37.9264 34.7729 38.1185 35.5968 38.1185 37.6881V47.7015C38.1185 49.4126 38.0545 50.3632 37.5424 51.504V51.5674H44.5191V51.504C43.9431 50.6167 43.879 49.4126 43.879 47.6381V44.5961H44.4551C46.5673 44.5961 47.6554 44.7862 48.1675 44.9763H48.2955V41.3005H48.1675C47.7834 41.3639 46.9514 41.554 44.3911 41.554Z" fill="black"/>
<path d="M73.002 51.5674L73.4501 47.8916H73.194C72.298 48.2719 71.5299 48.3986 69.3537 48.3986C68.3936 48.3986 67.8175 48.3352 66.9854 48.2085V44.0257H67.5615C69.6737 44.0257 70.7618 44.2158 71.2738 44.4059H71.4019V40.7302H71.2738C70.8898 40.7935 70.0577 40.9837 67.4975 40.9837H67.0494V36.9276H69.3537C71.0818 36.9276 72.1699 37.1178 73.002 37.498H73.066L72.618 33.8856H60.7128V33.949C61.0968 34.7729 61.2888 35.5968 61.2888 37.6881V47.7015C61.2888 49.4126 61.2248 50.3632 60.7128 51.504V51.5674H73.002Z" fill="black"/>
<path d="M93.1001 54.1024C100.653 54.1024 105.133 49.3492 105.133 43.2652C105.133 37.9417 100.845 33.8222 94.1242 33.8222H85.9954V33.8856C86.3794 34.7095 86.5714 35.5334 86.5714 37.6248V46.941C88.1716 47.5113 90.4118 47.7648 92.332 47.7015V36.7375H94.3802C97.5165 36.7375 99.3087 39.3359 99.3087 42.8216C99.3087 46.8776 96.7485 49.7295 91.4999 49.7295C87.7235 49.7295 85.8033 48.462 81.5149 48.462V37.6881C81.5149 36.0404 81.7069 34.7095 82.091 33.8856V33.8222H75.1783V33.8856C75.5623 34.7095 75.7543 35.5334 75.7543 37.6248V47.7015C75.7543 49.4126 75.6903 50.3632 75.1783 51.504V51.5674H78.1866C85.4193 51.5674 87.2755 54.1024 93.1001 54.1024Z" fill="black"/>
</g>
</svg>
