<svg width="33" height="33" viewBox="0 0 33 33" fill="none"
	xmlns="http://www.w3.org/2000/svg">
	<path d="M28.1524 2.80908H4.41906C4.03007 2.80908 3.65702 2.96361 3.38197 3.23866C3.10692 3.51371 2.95239 3.88676 2.95239 4.27575V28.0091C2.95239 28.2017 2.99033 28.3924 3.06404 28.5704C3.13774 28.7483 3.24578 28.91 3.38197 29.0462C3.51816 29.1824 3.67985 29.2904 3.85779 29.3641C4.03573 29.4378 4.22645 29.4757 4.41906 29.4757H17.1924V19.1424H13.7257V15.1424H17.1924V12.1424C17.1206 11.4381 17.2037 10.7266 17.436 10.0578C17.6683 9.38901 18.0441 8.77914 18.537 8.27096C19.0299 7.76278 19.6281 7.3686 20.2895 7.11607C20.9509 6.86353 21.6595 6.75875 22.3657 6.80908C23.4035 6.8027 24.4408 6.85612 25.4724 6.96908V10.5691H23.3524C21.6724 10.5691 21.3524 11.3691 21.3524 12.5291V15.1024H25.3524L24.8324 19.1024H21.3524V29.4757H28.1524C28.345 29.4757 28.5357 29.4378 28.7137 29.3641C28.8916 29.2904 29.0533 29.1824 29.1895 29.0462C29.3257 28.91 29.4337 28.7483 29.5074 28.5704C29.5811 28.3924 29.6191 28.2017 29.6191 28.0091V4.27575C29.6191 4.08314 29.5811 3.89242 29.5074 3.71448C29.4337 3.53654 29.3257 3.37485 29.1895 3.23866C29.0533 3.10247 28.8916 2.99443 28.7137 2.92073C28.5357 2.84702 28.345 2.80908 28.1524 2.80908Z" fill="white"/>
</svg>
