<svg width="64" height="64" viewBox="0 0 64 64" fill="none" xmlns="http://www.w3.org/2000/svg">
<path d="M24.375 4.37503V8.00003L24.1 8.12503C23.9375 8.18753 23.425 8.38753 22.9375 8.57503C21.725 9.03753 19.8375 9.98753 18.7375 10.6875C17.975 11.1875 17.7875 11.25 17.6 11.1375C17.475 11.0625 16.2125 10.0875 14.8 8.98753C13.3875 7.88753 12.1625 6.96253 12.075 6.92503C11.9125 6.86253 2.85 18.4125 2.825 18.7125C2.8125 18.7875 4.1125 19.875 5.7125 21.1125L8.6125 23.375L8.3625 24.0875C7.9 25.4375 7.25 28.7375 7.25 29.7625C7.25 30.075 7.2 30.0875 3.625 30.9375C0.8125 31.6125 0 31.85 0 32C0 32.2 3.375 46.4 3.45 46.475C3.4625 46.5 4.6375 46.25 6.05 45.925L8.625 45.3125L12.5625 41.375L16.5 37.4375L16.1875 36.4625C15.2625 33.55 15.2625 29.8375 16.2 26.85C18.55 19.4 25.8375 14.475 33.425 15.225C39.2875 15.8125 44.2125 19.175 46.8 24.3375C48.0125 26.775 48.5125 28.9625 48.5125 31.8125C48.5 39.675 42.95 46.3 35 47.9625C32.85 48.4125 29.2125 48.2125 27.325 47.55L26.825 47.3625L21.225 52.9625C18.15 56.0375 15.675 58.6 15.725 58.6375C15.9125 58.8375 25.425 63.25 25.55 63.2125C25.625 63.1875 26.3875 61.6625 27.2625 59.8125L28.8375 56.45L31.95 56.4375C33.6625 56.425 35.175 56.375 35.3125 56.325C35.5375 56.25 35.7375 56.6 37.2375 59.6875C38.1625 61.575 38.95 63.125 39 63.125C39.0875 63.125 52.4 56.6375 52.4875 56.55C52.525 56.525 51.8 54.9875 50.9 53.15C49.9875 51.3 49.25 49.75 49.25 49.7C49.25 49.6375 49.7125 49.1125 50.2625 48.525C50.825 47.925 51.7 46.85 52.2 46.125C52.7 45.4 53.1875 44.7125 53.275 44.5875C53.425 44.375 53.6375 44.4125 57.0625 45.175C59.0625 45.625 60.725 45.95 60.7625 45.9C60.8875 45.7625 64.025 31.525 63.975 31.3625C63.95 31.275 62.8625 30.975 61.4875 30.6625C60.15 30.375 58.55 30.0125 57.9125 29.8625L56.7625 29.6125L56.6875 28.9C56.55 27.6625 56 25.1625 55.625 24.0375C55.4 23.375 55.3 22.9 55.3625 22.825C55.425 22.75 56.7125 21.7 58.2375 20.5C59.75 19.3 60.9875 18.2875 61 18.25C61 18.175 52.1125 7.07503 51.75 6.70003C51.525 6.46253 51.4625 6.50003 48.7875 8.63753C47.2875 9.83753 45.9875 10.8625 45.9 10.925C45.8125 10.975 45.6 10.9125 45.4 10.775C44.375 10.05 41.95 8.87503 40.1 8.20003L39.5 7.97503V4.36253V0.750031H31.9375H24.375V4.37503Z" fill="black"/>
<path d="M30.2875 20C28.4125 20.2625 26.5375 21 25.0875 22.05C24.225 22.6625 22.9 23.9875 22.2125 24.9125C21.5625 25.7875 20.675 27.6625 20.3625 28.8125C20.1375 29.6375 20.0875 30.1625 20.0875 31.75C20.075 33.95 20.2625 34.8625 21.0625 36.5875L21.5125 37.55L12.1 46.9625L2.6875 56.375L5.1875 58.875L7.6875 61.375L17.1875 51.875L26.6875 42.3875L27.9375 42.8125C29.6 43.3875 30.75 43.55 32.4375 43.4625C35.9875 43.275 39.2125 41.4625 41.425 38.4125C43.35 35.775 44.05 32.125 43.2375 28.9375C43.1 28.4 42.25 26.05 41.85 25.1375L41.6125 24.575L38.4375 27.75L35.25 30.9375L33.9125 29.5875L32.5625 28.25L35.75 25.0625L38.925 21.8875L38.3625 21.65C36.9875 21.0625 34.9875 20.3625 34.1875 20.1875C33.05 19.95 31.2625 19.8625 30.2875 20Z" fill="#FE4D01"/>
</svg>
