<svg width="138" height="100" viewBox="0 0 138 100" fill="none" xmlns="http://www.w3.org/2000/svg">
<path opacity="0.25" d="M79.8042 24.2376L71.9358 18.4V35.0282L79.8042 29.5505V24.2376Z" fill="black"/>
<path opacity="0.25" d="M79.8042 48.0139V36.5922L71.9358 42.2726L79.8042 48.0139Z" fill="black"/>
<path opacity="0.25" d="M58.1958 47.3498L66.0667 53.0936V29.3148L58.1958 23.4772V47.3498Z" fill="black"/>
<path opacity="0.25" d="M46.3175 69.1734H38.381V62.3674H33.35V80.8435H38.381V73.4419H46.3175V80.8435H51.3384V62.3674H46.3175V69.1734Z" fill="black"/>
<path opacity="0.25" d="M58.5808 69.4393C59.0024 66.9451 60.3756 65.6422 62.6021 65.6422C64.8538 65.6422 66.3836 67.1783 66.4568 69.4393H58.5808ZM62.6299 61.8806C57.094 61.8806 53.3807 65.7183 53.3807 71.4748C53.3807 77.4619 57.0511 81.2667 62.7889 81.2667C67.3731 81.2667 70.5159 79.1552 71.6948 75.1578H66.2649C65.7727 76.6179 64.6241 77.3504 62.8974 77.3504C60.3024 77.3504 58.7424 75.8067 58.6111 73.1224H71.6948C71.6948 72.4735 71.7326 72.2454 71.7326 71.9361C71.7326 65.7183 68.2187 61.8806 62.6298 61.8806" fill="black"/>
<path opacity="0.25" d="M80.285 62.2078C78.5054 62.5626 73.9388 63.9416 73.9388 70.9376V80.841H79.0279V72.6612C79.0279 69.6322 79.447 68.2101 80.7041 67.2926C81.474 66.6741 82.5872 66.3319 83.8797 66.3319C84.4149 66.3319 84.6446 66.3724 85.258 66.484V62.2914C85.258 62.2914 83.2284 61.6299 80.285 62.2078Z" fill="black"/>
<path opacity="0.25" d="M95.3225 77.4215C92.6417 77.4215 91.0766 75.2365 91.0766 71.589C91.0766 67.9034 92.6089 65.7539 95.3225 65.7539C97.9958 65.7539 99.5281 67.8653 99.5281 71.5509C99.5281 75.2771 97.9958 77.4215 95.3225 77.4215ZM95.3225 61.8782C89.6175 61.8806 85.9471 65.6778 85.9471 71.589C85.9471 77.4595 89.6175 81.2642 95.3225 81.2642C100.975 81.2642 104.65 77.4595 104.65 71.589C104.65 65.6778 100.975 61.8782 95.3225 61.8782Z" fill="black"/>
</svg>
