<svg width="33" height="33" viewBox="0 0 33 33" fill="none"
	xmlns="http://www.w3.org/2000/svg">
	<path d="M16.2857 12.8357C15.6317 12.8357 14.9924 13.0297 14.4486 13.393C13.9049 13.7564 13.481 14.2728 13.2308 14.877C12.9805 15.4812 12.915 16.1461 13.0426 16.7875C13.1702 17.4289 13.4851 18.0181 13.9476 18.4806C14.41 18.943 14.9992 19.258 15.6406 19.3855C16.2821 19.5131 16.9469 19.4477 17.5511 19.1974C18.1553 18.9471 18.6718 18.5233 19.0351 17.9795C19.3985 17.4357 19.5924 16.7964 19.5924 16.1424C19.5924 15.7082 19.5069 15.2782 19.3407 14.877C19.1745 14.4758 18.9309 14.1113 18.6239 13.8042C18.3168 13.4972 17.9523 13.2536 17.5511 13.0875C17.1499 12.9213 16.72 12.8357 16.2857 12.8357ZM29.5257 9.56908C29.5187 8.53943 29.3291 7.51918 28.9657 6.55575C28.6981 5.85076 28.284 5.21054 27.7508 4.67733C27.2176 4.14412 26.5774 3.73004 25.8724 3.46242C24.909 3.09903 23.8887 2.90943 22.8591 2.90242C21.1391 2.80908 20.6324 2.80908 16.2857 2.80908C11.9391 2.80908 11.4324 2.80908 9.71239 2.90242C8.68274 2.90943 7.66249 3.09903 6.69906 3.46242C5.99407 3.73004 5.35385 4.14412 4.82064 4.67733C4.28743 5.21054 3.87335 5.85076 3.60573 6.55575C3.24234 7.51918 3.05274 8.53943 3.04573 9.56908C2.95239 11.2891 2.95239 11.7957 2.95239 16.1424C2.95239 20.4891 2.95239 20.9958 3.04573 22.7157C3.06008 23.749 3.24943 24.7724 3.60573 25.7424C3.87216 26.4442 4.2859 27.0807 4.81906 27.6091C5.34998 28.1455 5.99158 28.5596 6.69906 28.8224C7.66249 29.1858 8.68274 29.3754 9.71239 29.3824C11.4324 29.4757 11.9391 29.4757 16.2857 29.4757C20.6324 29.4757 21.1391 29.4757 22.8591 29.3824C23.8887 29.3754 24.909 29.1858 25.8724 28.8224C26.5799 28.5596 27.2215 28.1455 27.7524 27.6091C28.2856 27.0807 28.6993 26.4442 28.9657 25.7424C29.3288 24.7743 29.5183 23.7497 29.5257 22.7157C29.6191 20.9958 29.6191 20.4891 29.6191 16.1424C29.6191 11.7957 29.6191 11.2891 29.5257 9.56908ZM26.1391 20.2357C26.0963 21.0586 25.9207 21.869 25.6191 22.6357C25.3602 23.2753 24.9754 23.8563 24.4875 24.3442C23.9996 24.8321 23.4186 25.2169 22.7791 25.4757C22.0051 25.7605 21.1901 25.9181 20.3657 25.9424C19.3124 25.9424 19.0324 25.9424 16.2857 25.9424C13.5391 25.9424 13.2591 25.9424 12.2057 25.9424C11.3814 25.9181 10.5664 25.7605 9.79239 25.4757C9.1312 25.23 8.5341 24.838 8.04573 24.3291C7.56261 23.8507 7.18952 23.2729 6.95239 22.6357C6.66647 21.8626 6.5132 21.0466 6.49906 20.2224C6.49906 19.1691 6.49906 18.8891 6.49906 16.1424C6.49906 13.3957 6.49906 13.1157 6.49906 12.0624C6.5132 11.2382 6.66647 10.4223 6.95239 9.64908C7.1981 8.98789 7.59009 8.39078 8.09906 7.90242C8.5795 7.42191 9.15674 7.04921 9.79239 6.80908C10.5664 6.52429 11.3814 6.3667 12.2057 6.34242C13.2591 6.34242 13.5391 6.34242 16.2857 6.34242C19.0324 6.34242 19.3124 6.34242 20.3657 6.34242C21.1901 6.3667 22.0051 6.52429 22.7791 6.80908C23.4403 7.05479 24.0374 7.44678 24.5257 7.95575C25.0088 8.43408 25.3819 9.01193 25.6191 9.64908C25.9039 10.4231 26.0614 11.2381 26.0857 12.0624C26.0857 13.1157 26.0857 13.3957 26.0857 16.1424C26.0857 18.8891 26.1791 19.1691 26.1391 20.2224V20.2357ZM24.0057 10.3157C23.847 9.88506 23.5967 9.49394 23.2721 9.16937C22.9475 8.8448 22.5564 8.5945 22.1257 8.43575C21.5344 8.23076 20.9115 8.13147 20.2857 8.14242C19.2457 8.14242 18.9524 8.14242 16.2857 8.14242C13.6191 8.14242 13.3257 8.14242 12.2857 8.14242C11.6567 8.14856 11.0338 8.26593 10.4457 8.48908C10.0216 8.64062 9.63465 8.8807 9.3105 9.19335C8.98636 9.506 8.73247 9.88407 8.56573 10.3024C8.3721 10.8962 8.2775 11.5179 8.28573 12.1424C8.28573 13.1824 8.28573 13.4757 8.28573 16.1424C8.28573 18.8091 8.28573 19.1024 8.28573 20.1424C8.29894 20.7707 8.41608 21.3924 8.63239 21.9824C8.79114 22.4131 9.04144 22.8042 9.36601 23.1288C9.69058 23.4534 10.0817 23.7037 10.5124 23.8624C11.0813 24.0716 11.6799 24.1887 12.2857 24.2091C13.3257 24.2091 13.6191 24.2091 16.2857 24.2091C18.9524 24.2091 19.2457 24.2091 20.2857 24.2091C20.9147 24.2029 21.5376 24.0856 22.1257 23.8624C22.5564 23.7037 22.9475 23.4534 23.2721 23.1288C23.5967 22.8042 23.847 22.4131 24.0057 21.9824C24.2289 21.3943 24.3462 20.7714 24.3524 20.1424C24.3524 19.1024 24.3524 18.8091 24.3524 16.1424C24.3524 13.4757 24.3524 13.1824 24.3524 12.1424C24.3528 11.5128 24.2352 10.8887 24.0057 10.3024V10.3157ZM16.2857 21.2357C15.6175 21.2358 14.9558 21.1039 14.3386 20.8478C13.7214 20.5917 13.1608 20.2163 12.6889 19.7431C12.217 19.27 11.8431 18.7084 11.5886 18.0905C11.3341 17.4727 11.204 16.8107 11.2057 16.1424C11.2057 15.1345 11.5048 14.1492 12.065 13.3113C12.6253 12.4734 13.4216 11.8206 14.353 11.4355C15.2845 11.0504 16.3093 10.9503 17.2976 11.1479C18.286 11.3456 19.1935 11.832 19.9053 12.5456C20.6171 13.2593 21.1011 14.1681 21.2961 15.157C21.4912 16.1458 21.3884 17.1704 21.0008 18.1008C20.6133 19.0313 19.9584 19.8258 19.1191 20.3839C18.2797 20.9419 17.2937 21.2384 16.2857 21.2357ZM21.6191 12.0491C21.3243 12.0179 21.0515 11.8787 20.8533 11.6584C20.6551 11.438 20.5454 11.1521 20.5454 10.8557C20.5454 10.5594 20.6551 10.2735 20.8533 10.0531C21.0515 9.83279 21.3243 9.69361 21.6191 9.66242C21.9138 9.69361 22.1866 9.83279 22.3848 10.0531C22.5831 10.2735 22.6927 10.5594 22.6927 10.8557C22.6927 11.1521 22.5831 11.438 22.3848 11.6584C22.1866 11.8787 21.9138 12.0179 21.6191 12.0491Z" fill="white"/>
</svg>
