<svg width="139" height="100" viewBox="0 0 139 100" fill="none" xmlns="http://www.w3.org/2000/svg">
<g opacity="0.25" clip-path="url(#clip0)">
<path d="M46.0381 32.291H49.1107V43.3417C49.1107 44.7857 48.9994 45.897 48.7768 46.6756C48.5108 47.6455 47.9407 48.5037 47.151 49.1232C46.3671 49.7384 45.3324 50.0459 44.0469 50.0459C42.5404 50.0459 41.3807 49.5603 40.5678 48.589C39.7549 47.6177 39.3484 46.2062 39.3484 44.3543L42.2517 43.973C42.2856 44.9734 42.4138 45.68 42.6364 46.0928C42.7705 46.3813 42.9859 46.624 43.2559 46.791C43.5259 46.958 43.8387 47.042 44.1558 47.0325C44.8453 47.0325 45.3292 46.8092 45.6074 46.3599C45.8856 45.9107 46.0381 44.9807 46.0381 43.5675V32.291Z" fill="black"/>
<path d="M66.1722 49.7473H62.8165L61.4834 45.7869H55.3793L54.1188 49.7521H50.8478L56.7971 32.2959H60.056L66.1722 49.7473ZM60.4939 42.8415L58.3914 36.3631L56.3277 42.8415H60.4939Z" fill="black"/>
<path d="M68.7972 49.7473L65.1512 32.291H68.2964L70.5996 44.2838L73.4013 32.291H77.0667L79.7449 44.4854L82.0869 32.291H85.191L81.4845 49.7473H78.2159L75.1699 36.6982L72.1408 49.7473H68.7972Z" fill="black"/>
<path d="M99.3589 49.7473H96.0033L94.6678 45.7869H88.5661L87.3056 49.7521H84.0345L89.9838 32.2959H93.2427L99.3589 49.7473ZM93.6806 42.8415L91.5758 36.3631L89.5145 42.8415H93.6806Z" fill="black"/>
<path d="M119.345 49.8346C119.345 65.0764 97.0339 77.4334 69.5061 77.4334C41.9783 77.4334 19.6667 65.0764 19.6667 49.8346C19.6667 34.5929 41.9783 22.2334 69.5061 22.2334C97.0339 22.2334 119.345 34.5904 119.345 49.8346ZM69.419 25.39C43.713 25.475 22.9087 36.4893 22.9667 49.99C23.0248 63.4907 43.8872 74.3642 69.5932 74.2719C95.2992 74.1796 116.091 63.1775 116.045 49.6719C115.999 36.1663 95.125 25.3051 69.419 25.39Z" fill="black"/>
<path d="M30.6072 56.9566L60.3125 54.7713L61.9044 53.0715H27.0652C25.9572 53.9797 28.1878 56.9566 30.6072 56.9566Z" fill="black"/>
<path d="M35.9903 62.3568L58.6842 58.1123L59.6084 56.2766L32.0056 59.4454C31.1612 60.4507 33.9411 62.5802 35.9903 62.3568Z" fill="black"/>
<path d="M44.9373 66.5988L58.3068 61.9197L58.2512 60.1301L40.2316 64.4329C39.7477 65.4746 43.4445 66.9436 44.9373 66.5988Z" fill="black"/>
<path d="M53.2672 69.0515L59.0737 65.7419L58.6527 63.7993L48.5034 67.6407C48.2856 68.6314 52.3696 69.2555 53.2672 69.0515Z" fill="black"/>
<path d="M63.2907 70.7124C61.2343 69.5395 59.923 67.0701 59.923 67.0701C59.923 67.0701 56.1584 69.3744 56.1124 69.8236C57.0802 70.1879 60.0222 70.5691 63.2907 70.7124Z" fill="black"/>
<path d="M108.078 56.9566L78.3804 54.7713L76.7909 53.0715H111.63C112.736 53.9797 110.498 56.9566 108.078 56.9566Z" fill="black"/>
<path d="M102.695 62.3568L80.0014 58.1123L79.0772 56.2766L106.682 59.4454C107.524 60.4507 104.747 62.5802 102.695 62.3568Z" fill="black"/>
<path d="M93.7484 66.5988L80.3788 61.9197L80.4345 60.1301L98.4638 64.4329C98.9452 65.4746 95.2411 66.9436 93.7484 66.5988Z" fill="black"/>
<path d="M85.4184 69.0515L79.6119 65.7419L80.0328 63.7993L90.1943 67.6407C90.3999 68.6314 86.316 69.2555 85.4184 69.0515Z" fill="black"/>
<path d="M75.3949 70.7124C77.4514 69.5395 78.7627 67.0701 78.7627 67.0701C78.7627 67.0701 82.5273 69.3744 82.5708 69.8261C81.603 70.1879 78.6635 70.5691 75.3949 70.7124Z" fill="black"/>
<path d="M79.0699 61.3272C79.0694 63.2753 78.4933 65.1795 77.4145 66.799C76.3356 68.4184 74.8024 69.6804 73.0088 70.4252C71.2153 71.1701 69.2419 71.3643 67.3383 70.9835C65.4347 70.6026 63.6864 69.6637 62.3146 68.2855C60.9428 66.9073 60.009 65.1517 59.6313 63.2408C59.2537 61.33 59.4492 59.3496 60.1931 57.5503C60.9371 55.7509 62.1959 54.2134 63.8106 53.1322C65.4252 52.051 67.3231 51.4746 69.2641 51.4761C71.8659 51.478 74.3604 52.5168 76.1992 54.3641C78.038 56.2114 79.0706 58.716 79.0699 61.3272ZM69.2641 52.9257C67.6088 52.9243 65.9902 53.4156 64.613 54.3375C63.2359 55.2594 62.1622 56.5705 61.5276 58.105C60.893 59.6395 60.7261 61.3284 61.048 62.958C61.3699 64.5877 62.1661 66.085 63.3359 67.2604C64.5058 68.4359 65.9967 69.2367 67.6201 69.5617C69.2435 69.8866 70.9264 69.7211 72.4561 69.086C73.9857 68.4508 75.2933 67.3747 76.2135 65.9936C77.1337 64.6126 77.6251 62.9886 77.6256 61.3272C77.6262 60.2246 77.4104 59.1326 76.9906 58.1136C76.5707 57.0946 75.955 56.1686 75.1786 55.3885C74.4021 54.6083 73.4802 53.9893 72.4654 53.5667C71.4506 53.1442 70.3628 52.9263 69.2641 52.9257V52.9257Z" fill="black"/>
<path d="M67.0166 54.4556C65.9187 54.8164 64.9235 55.4371 64.1149 56.2652C63.3063 57.0933 62.7082 58.1046 62.371 59.2135C62.0337 60.3225 61.9673 61.4966 62.1774 62.6367C62.3874 63.7768 62.8677 64.8495 63.5777 65.7641C64.2877 66.6787 65.2065 67.4085 66.2566 67.8917C67.3067 68.3749 68.4573 68.5975 69.6112 68.5405C70.765 68.4836 71.8883 68.1488 72.8861 67.5645C73.8839 66.9802 74.7269 66.1634 75.3441 65.1833C75.3441 65.1833 75.6078 64.7244 75.0634 64.3286C74.9326 64.2121 74.7681 64.1407 74.5939 64.125C74.4197 64.1092 74.2451 64.15 74.0957 64.2412C73.607 65.097 72.9027 65.8089 72.0535 66.3054C71.2042 66.8019 70.2398 67.0656 69.2569 67.07C68.5109 67.0627 67.7736 66.908 67.0872 66.6147C66.4007 66.3214 65.7786 65.8953 65.2562 65.3607C64.7339 64.8261 64.3216 64.1934 64.0429 63.4989C63.7642 62.8043 63.6245 62.0615 63.6318 61.3128C63.6318 58.5325 65.6956 56.3058 68.2601 55.7692L67.0166 54.4556Z" fill="black"/>
<path d="M70.6238 55.8905C72.0755 56.262 73.3094 57.0512 74.069 58.3187C74.2184 58.4072 74.3921 58.4457 74.5647 58.4284C74.7373 58.4111 74.9 58.3389 75.029 58.2225C75.1579 58.106 75.2466 57.9513 75.2819 57.7808C75.3173 57.6104 75.2975 57.433 75.2255 57.2746C74.3495 55.9729 73.0759 54.9921 71.5964 54.4797L70.6238 55.8905Z" fill="black"/>
<path d="M69.4093 56.2765L67.4738 54.13C67.4738 54.13 68.1996 53.7002 68.7343 53.8556L69.4601 54.3898L70.2416 53.8775C70.7908 53.676 71.3352 54.1616 71.3352 54.1616L69.4093 56.2765Z" fill="black"/>
<path d="M76.503 61.3272C76.503 61.5221 76.4454 61.7127 76.3374 61.8749C76.2295 62.037 76.0761 62.1633 75.8966 62.238C75.7171 62.3126 75.5196 62.3321 75.3291 62.2941C75.1385 62.256 74.9635 62.1621 74.8262 62.0243C74.6888 61.8864 74.5952 61.7107 74.5573 61.5195C74.5194 61.3282 74.5389 61.13 74.6132 60.9499C74.6876 60.7697 74.8135 60.6158 74.975 60.5075C75.1365 60.3991 75.3264 60.3413 75.5207 60.3413C75.7812 60.3413 76.0311 60.4452 76.2153 60.6301C76.3995 60.8149 76.503 61.0657 76.503 61.3272Z" fill="black"/>
<path d="M66.8278 65.057H72.119C72.5739 65.057 73.1593 63.5224 72.1601 63.5394H68.7343L69.702 62.0218H72.1674C72.8932 61.9926 72.8327 60.5357 72.1674 60.5357H71.1392L72.6222 58.8967C72.9247 58.5616 72.9537 57.5005 72.1674 57.5005H66.869C66.1431 57.5296 66.2931 59.1395 66.869 59.1395H70.2851L69.0222 60.6256L66.869 60.5989C66.0222 60.6596 65.9907 61.9975 66.869 62.0242L67.8972 62.0558C67.8972 62.0558 66.656 63.5394 66.3536 63.8138C66.0512 64.0882 65.8891 65.057 66.8278 65.057Z" fill="black"/>
</g>
<defs>
<clipPath id="clip0">
<rect width="99.6667" height="55.2" fill="white" transform="translate(19.6667 22.2334)"/>
</clipPath>
</defs>
</svg>
