<svg width="174" height="67" viewBox="0 0 174 67" fill="none" xmlns="http://www.w3.org/2000/svg">
<path d="M8.1045 12.5435C8.2011 12.7834 8.97387 14.371 9.81425 16.0785L11.3405 19.1798L10.9734 19.752C10.0654 21.155 8.85795 24.0809 8.1528 26.6375L7.88233 27.6344L5.96972 28.2805C4.91683 28.6404 3.18775 29.2219 2.13485 29.5819L0.202928 30.228L0.087013 33.3846C0.0193956 35.1291 -0.0192443 36.5874 0.00973456 36.652C0.0483731 36.7074 1.75813 37.3258 3.82529 38.0273L7.57322 39.301L8.28803 41.35C8.92557 43.2329 10.0171 45.4943 10.9734 46.9618L11.3405 47.5341L9.63074 51.0138L7.93065 54.5027L13.0309 59.3761L16.6823 57.7516L20.3143 56.1272L21.116 56.561C22.6229 57.4101 24.7964 58.3239 26.8635 59.0069L28.9403 59.6991L30.2637 63.2896C30.9978 65.2648 31.6257 66.8985 31.6643 66.9354C31.703 66.9723 33.2968 67 35.2094 67H38.6676L38.8414 66.557C38.9284 66.3078 39.5369 64.6556 40.2035 62.8742L41.4012 59.6622L42.4541 59.3946C45.0043 58.7485 47.5544 57.807 49.2642 56.8932L46.7527 49.9708C44.2605 51.503 41.2853 52.629 38.5613 53.0721C36.7936 53.3582 33.2968 53.3582 31.6547 53.0628C24.1588 51.7337 18.3244 47.1003 15.6293 40.3532C13.9003 35.9875 13.9003 30.7264 15.6293 26.3607C16.7982 23.4163 18.0249 21.6165 20.3432 19.3828C21.3285 18.4414 22.3814 17.5276 22.8741 17.1861C29.9256 12.4604 38.7255 12.1189 46.0572 16.3001C46.0572 16.3001 50.2978 10.7713 50.2398 10.7713C50.2012 10.7713 49.6892 10.5221 49.1193 10.2175C47.1777 9.17454 44.6565 8.2054 42.1837 7.54084L41.1308 7.25472L39.7977 3.63659L38.4744 0.00923048L34.9293 2.81675e-06L31.3745 0L28.6698 7.27318L27.8295 7.50393C25.5594 8.12233 23.1349 9.10993 21.087 10.2544L20.0728 10.8175L17.4454 9.50682C15.9964 8.80535 14.4122 8.01157 13.9196 7.78082L13.0213 7.34702L10.4711 9.72834L7.92097 12.1281L8.1045 12.5435Z" fill="white"/>
<path d="M41.9301 22.3333C42.3605 21.9525 42.8421 21.6003 43.375 21.2766C43.8464 21.0101 44.41 20.7626 45.0658 20.5341C45.7216 20.3056 46.4594 20.1914 47.2792 20.1914C48.263 20.1914 48.9906 20.4008 49.4619 20.8197C49.9538 21.2386 50.2305 21.7526 50.292 22.3619H50.4764C50.9478 21.9621 51.4602 21.6003 52.0136 21.2766C52.4849 21.0101 53.0383 20.7626 53.6736 20.5341C54.309 20.3056 54.9853 20.1914 55.7026 20.1914C56.7684 20.1914 57.6291 20.4675 58.285 21.0196C58.9613 21.5527 59.2995 22.2477 59.2995 23.1044C59.2995 23.5423 59.2175 24.123 59.0535 24.8465C58.8896 25.57 58.7051 26.3602 58.5002 27.217L57.209 32.786H51.1528L52.8129 25.3321C52.8743 25.0465 52.9358 24.7704 52.9973 24.5038C53.0588 24.2373 53.0895 24.0183 53.0895 23.847C53.0895 23.5804 53.0076 23.3615 52.8436 23.1901C52.6796 22.9997 52.4439 22.9045 52.1365 22.9045C51.7471 22.9045 51.3782 23.0378 51.0298 23.3043C50.7019 23.5519 50.4457 23.7613 50.2612 23.9326L48.263 32.786H42.5142L44.205 25.3321C44.246 25.0845 44.2972 24.837 44.3587 24.5895C44.4202 24.323 44.451 24.085 44.451 23.8755C44.451 23.5899 44.369 23.3615 44.205 23.1901C44.0615 22.9997 43.8361 22.9045 43.5287 22.9045C43.1598 22.9045 42.8011 23.0283 42.4527 23.2758C42.1248 23.5233 41.8686 23.7327 41.6841 23.9041L39.6552 32.786H33.3837L36.1813 20.5055H41.1923L41.7456 22.3333H41.9301Z" fill="#FE4D01"/>
<path d="M69.8542 20.1914C72.2931 20.1914 74.0659 20.5912 75.1726 21.3909C76.3408 22.2286 76.9249 23.6185 76.9249 25.5605C76.9249 26.76 76.7097 27.8453 76.2793 28.8163C75.8489 29.7683 75.2443 30.5584 74.4655 31.1867C72.9079 32.4052 70.6535 33.0145 67.7022 33.0145C65.1813 33.0145 63.3778 32.5671 62.2916 31.6722C61.1234 30.7393 60.5393 29.3399 60.5393 27.474C60.5393 26.2364 60.8057 25.1131 61.3386 24.104C61.8919 23.0949 62.681 22.2572 63.7057 21.5908C65.2018 20.6579 67.2513 20.1914 69.8542 20.1914ZM67.7637 31.0725C68.2761 31.0725 68.7167 30.8059 69.0856 30.2728C69.475 29.7397 69.7824 29.0924 70.0079 28.3308C70.2333 27.5502 70.3973 26.7505 70.4998 25.9318C70.6227 25.0941 70.6842 24.3706 70.6842 23.7613C70.6842 23.2282 70.6227 22.8284 70.4998 22.5618C70.3973 22.2762 70.1616 22.1334 69.7927 22.1334C69.2393 22.1334 68.7577 22.4095 68.3478 22.9616C67.9584 23.5138 67.6407 24.1706 67.3948 24.9322C67.1488 25.6938 66.9644 26.4744 66.8414 27.2741C66.7389 28.0737 66.6877 28.7211 66.6877 29.2161C66.6877 30.4537 67.0464 31.0725 67.7637 31.0725Z" fill="#FE4D01"/>
<path d="M78.6969 20.5055C79.4552 20.3532 80.1213 20.1819 80.6952 19.9915C81.269 19.8011 81.7916 19.5631 82.263 19.2775C82.7549 18.9919 83.216 18.6397 83.6464 18.2208C84.0973 17.8019 84.5789 17.2879 85.0913 16.6786H88.2578L87.3662 20.5055H89.7641L89.3645 22.419H86.9358L85.6754 27.9881C85.5729 28.426 85.4909 28.8163 85.4295 29.159C85.368 29.5017 85.3372 29.7683 85.3372 29.9586C85.3372 30.3394 85.4807 30.5774 85.7676 30.6726C86.0751 30.7678 86.6387 30.8154 87.4585 30.8154L86.9973 32.786C86.8539 32.8241 86.6284 32.8527 86.321 32.8717C86.0341 32.8907 85.7061 32.9098 85.3372 32.9288C84.9888 32.9669 84.6199 32.9859 84.2305 32.9859C83.8616 33.005 83.5337 33.0145 83.2468 33.0145C82.7344 33.0145 82.2323 32.9764 81.7404 32.9002C81.2485 32.8431 80.8079 32.7194 80.4185 32.529C80.0291 32.3195 79.7114 32.0244 79.4655 31.6436C79.24 31.2629 79.1273 30.7488 79.1273 30.1014C79.1273 29.873 79.1375 29.5874 79.158 29.2447C79.199 28.902 79.2708 28.5212 79.3732 28.1023L80.6644 22.419H78.2665L78.6969 20.5055Z" fill="#FE4D01"/>
<path d="M98.7351 20.1914C101.174 20.1914 102.947 20.5912 104.054 21.3909C105.222 22.2286 105.806 23.6185 105.806 25.5605C105.806 26.76 105.591 27.8453 105.16 28.8163C104.73 29.7683 104.125 30.5584 103.346 31.1867C101.789 32.4052 99.5344 33.0145 96.5831 33.0145C94.0623 33.0145 92.2587 32.5671 91.1725 31.6722C90.0043 30.7393 89.4202 29.3399 89.4202 27.474C89.4202 26.2364 89.6866 25.1131 90.2195 24.104C90.7729 23.0949 91.5619 22.2572 92.5867 21.5908C94.0828 20.6579 96.1323 20.1914 98.7351 20.1914ZM96.6446 31.0725C97.157 31.0725 97.5976 30.8059 97.9666 30.2728C98.356 29.7397 98.6634 29.0924 98.8888 28.3308C99.1143 27.5502 99.2782 26.7505 99.3807 25.9318C99.5037 25.0941 99.5652 24.3706 99.5652 23.7613C99.5652 23.2282 99.5037 22.8284 99.3807 22.5618C99.2782 22.2762 99.0425 22.1334 98.6736 22.1334C98.1203 22.1334 97.6386 22.4095 97.2287 22.9616C96.8393 23.5138 96.5217 24.1706 96.2757 24.9322C96.0298 25.6938 95.8453 26.4744 95.7224 27.2741C95.6199 28.0737 95.5687 28.7211 95.5687 29.2161C95.5687 30.4537 95.9273 31.0725 96.6446 31.0725Z" fill="#FE4D01"/>
<path d="M107.578 20.5055C108.336 20.3532 109.002 20.1819 109.576 19.9915C110.15 19.8011 110.673 19.5631 111.144 19.2775C111.636 18.9919 112.097 18.6397 112.527 18.2208C112.978 17.8019 113.46 17.2879 113.972 16.6786H117.139L116.247 20.5055H118.645L118.245 22.419H115.817L114.556 27.9881C114.454 28.426 114.372 28.8163 114.31 29.159C114.249 29.5017 114.218 29.7683 114.218 29.9586C114.218 30.3394 114.362 30.5774 114.649 30.6726C114.956 30.7678 115.52 30.8154 116.339 30.8154L115.878 32.786C115.735 32.8241 115.509 32.8527 115.202 32.8717C114.915 32.8907 114.587 32.9098 114.218 32.9288C113.87 32.9669 113.501 32.9859 113.111 32.9859C112.743 33.005 112.415 33.0145 112.128 33.0145C111.615 33.0145 111.113 32.9764 110.621 32.9002C110.129 32.8431 109.689 32.7194 109.299 32.529C108.91 32.3195 108.592 32.0244 108.346 31.6436C108.121 31.2629 108.008 30.7488 108.008 30.1014C108.008 29.873 108.018 29.5874 108.039 29.2447C108.08 28.902 108.152 28.5212 108.254 28.1023L109.545 22.419H107.147L107.578 20.5055Z" fill="#FE4D01"/>
<path d="M124.634 27.0456C124.552 27.4645 124.491 27.8643 124.45 28.2451C124.429 28.6259 124.419 28.9686 124.419 29.2732C124.419 29.4446 124.429 29.635 124.45 29.8444C124.47 30.0538 124.511 30.2538 124.573 30.4442C124.655 30.6155 124.757 30.7678 124.88 30.9011C125.023 31.0153 125.218 31.0725 125.464 31.0725C125.649 31.0725 125.853 31.0153 126.079 30.9011C126.325 30.7869 126.561 30.625 126.786 30.4156C127.032 30.2062 127.257 29.9491 127.462 29.6445C127.688 29.3399 127.862 28.9972 127.985 28.6164H133.027L132.227 31.6722C131.817 31.9197 131.346 32.1292 130.813 32.3005C130.28 32.4719 129.717 32.6147 129.122 32.7289C128.528 32.8241 127.923 32.8907 127.309 32.9288C126.694 32.9859 126.11 33.0145 125.556 33.0145C124.532 33.0145 123.579 32.9288 122.697 32.7575C121.816 32.5861 121.047 32.291 120.392 31.8721C119.736 31.4532 119.213 30.9011 118.824 30.2157C118.455 29.5112 118.27 28.6449 118.27 27.6168C118.27 26.6839 118.424 25.77 118.732 24.8751C119.059 23.9802 119.592 23.1901 120.33 22.5047C121.088 21.8002 122.093 21.2386 123.343 20.8197C124.614 20.4008 126.192 20.1914 128.077 20.1914C130.127 20.1914 131.664 20.4865 132.689 21.0767C133.734 21.6669 134.256 22.5904 134.256 23.847C134.256 24.361 134.174 24.9227 134.01 25.532C133.846 26.1222 133.601 26.6267 133.273 27.0456H124.634ZM128.723 23.6471C128.723 23.0568 128.62 22.657 128.415 22.4476C128.21 22.2381 127.964 22.1334 127.678 22.1334C127.35 22.1334 127.042 22.2381 126.755 22.4476C126.489 22.638 126.243 22.9045 126.017 23.2472C125.792 23.5709 125.587 23.9517 125.403 24.3896C125.218 24.8085 125.064 25.2559 124.941 25.7319H128.446C128.487 25.5034 128.528 25.2654 128.569 25.0179C128.61 24.8085 128.641 24.58 128.661 24.3325C128.702 24.085 128.723 23.8565 128.723 23.6471Z" fill="#FE4D01"/>
<path d="M148.394 32.1006C147.533 32.4243 146.621 32.6527 145.658 32.786C144.715 32.9383 143.639 33.0145 142.43 33.0145C141.364 33.0145 140.381 32.9193 139.479 32.7289C138.597 32.5195 137.829 32.1958 137.173 31.7579C136.517 31.32 136.005 30.7583 135.636 30.0729C135.267 29.3684 135.083 28.5212 135.083 27.5311C135.083 26.503 135.267 25.551 135.636 24.6752C136.025 23.7803 136.599 22.9997 137.358 22.3333C138.136 21.6669 139.12 21.1434 140.309 20.7626C141.497 20.3818 142.912 20.1914 144.551 20.1914C145.883 20.1914 147.041 20.2961 148.025 20.5055C149.009 20.6959 149.818 21.1434 150.454 21.8478L149.593 25.5034H145.412C145.432 25.1797 145.453 24.8941 145.473 24.6466C145.494 24.3991 145.504 24.123 145.504 23.8184C145.504 23.2091 145.432 22.7808 145.289 22.5332C145.146 22.2667 144.91 22.1334 144.582 22.1334C144.008 22.1334 143.506 22.4 143.076 22.9331C142.645 23.4471 142.287 24.0754 142 24.818C141.733 25.5415 141.528 26.3126 141.385 27.1313C141.262 27.9309 141.2 28.6164 141.2 29.1875C141.2 29.397 141.211 29.6159 141.231 29.8444C141.252 30.0538 141.293 30.2538 141.354 30.4442C141.436 30.6346 141.538 30.7869 141.661 30.9011C141.784 31.0153 141.959 31.0725 142.184 31.0725C142.389 31.0725 142.625 31.0153 142.891 30.9011C143.158 30.7869 143.414 30.6155 143.66 30.387C143.906 30.1395 144.141 29.8254 144.367 29.4446C144.592 29.0638 144.766 28.6068 144.889 28.0737H149.286L148.394 32.1006Z" fill="#FE4D01"/>
<path d="M159.138 22.3333H159.353C159.743 21.9716 160.193 21.6384 160.706 21.3338C161.136 21.0672 161.649 20.8292 162.243 20.6198C162.837 20.4103 163.503 20.3056 164.241 20.3056C165.307 20.3056 166.188 20.5627 166.885 21.0767C167.582 21.5718 167.93 22.2572 167.93 23.133C167.93 23.3995 167.899 23.7042 167.838 24.0469C167.777 24.3706 167.705 24.7228 167.623 25.1036C167.541 25.4653 167.449 25.8366 167.346 26.2174C167.264 26.5791 167.192 26.9123 167.131 27.217L165.84 32.786H159.599L161.29 25.3321C161.331 25.0845 161.382 24.837 161.444 24.5895C161.505 24.323 161.536 24.085 161.536 23.8755C161.536 23.5899 161.454 23.3615 161.29 23.1901C161.146 22.9997 160.921 22.9045 160.614 22.9045C160.245 22.9045 159.886 23.0283 159.538 23.2758C159.21 23.5233 158.953 23.7423 158.769 23.9326L156.74 32.786H150.469L154.834 13.5942H161.136L159.138 22.3333Z" fill="#FE4D01"/>
<path d="M61.7381 36.7861C60.7029 36.1341 59.372 35.8612 58.189 36.0507C57.6986 36.1341 56.9475 36.3956 56.5272 36.6307C56.0525 36.896 55.4454 37.3964 55.134 37.783C54.9901 37.9688 54.776 38.2303 54.6671 38.3668L54.4608 38.6132L43.1294 38.617C38.6618 38.617 34.9259 38.5942 34.8364 38.5677C34.6885 38.5222 34.634 38.4692 34.3422 38.0711C32.8206 35.9976 30.042 35.3684 27.7498 36.5852C27.1388 36.9074 26.4072 37.5518 25.9986 38.1394C24.9167 39.6784 24.8272 41.6837 25.769 43.344C26.0297 43.8027 26.7808 44.6101 27.275 44.955C28.1195 45.5502 29.0846 45.8459 30.2015 45.8421C31.2756 45.8421 32.1279 45.5957 32.9879 45.046C33.4393 44.7579 34.0892 44.1325 34.4044 43.6738C34.5562 43.4577 34.6885 43.3137 34.7664 43.2833C34.8286 43.253 38.5762 43.2341 43.0905 43.2341L54.4997 43.2379L54.6476 43.4274C54.7254 43.526 54.9122 43.7686 55.0601 43.9581C55.6633 44.7579 56.7335 45.444 57.7531 45.6867C58.9634 45.9785 60.1659 45.8459 61.2789 45.3C61.6836 45.1029 61.8432 44.993 62.2673 44.6101L62.7733 44.1552L60.8041 44.1476C59.1268 44.1438 58.8116 44.1249 58.7143 44.0301C58.6521 43.9695 58.2668 43.2682 57.8582 42.4683C57.2238 41.2364 57.1149 40.9862 57.1421 40.8459C57.1771 40.6374 58.5625 37.9309 58.6988 37.7982C58.7688 37.73 59.2669 37.7072 60.7963 37.7034L62.8005 37.6996L62.4308 37.3471C62.2284 37.15 61.9132 36.896 61.7381 36.7861ZM32.2174 41.4449C32.0695 42.021 31.9372 42.5063 31.9333 42.5252C31.9294 42.5442 31.4235 42.6806 30.8047 42.8285L29.6917 43.1014L28.8394 42.294L27.9872 41.479L28.2674 40.3797L28.5515 39.2766L30.7619 38.7307L31.6258 39.5647L32.4859 40.4024L32.2174 41.4449Z" fill="white"/>
</svg>
