<svg width="139" height="100" viewBox="0 0 139 100" fill="none" xmlns="http://www.w3.org/2000/svg">
<g opacity="0.25">
<path d="M47.2588 46.6847H39.0318C38.6278 46.6847 38.246 46.9092 38.0263 47.2525L36.636 49.5303C36.636 49.5303 44.9249 49.5287 44.9249 49.5303C45.4483 49.5667 45.8626 50.0536 45.8626 50.6478C45.8626 50.656 45.8611 55.0004 45.8611 55.0004H39.6437V53.7493C39.6437 53.5017 39.8236 53.3019 40.0432 53.3019H44.3868V51.6926C44.3868 51.2981 44.1686 51.0769 43.8707 51.0769H37.8464C37.1092 51.0769 36.5121 51.7454 36.5121 52.5691V56.5404C36.5121 56.5586 36.518 56.58 36.5269 56.6048C36.6094 57.2006 37.0694 57.638 37.6238 57.638H49.3702V49.0517C49.3702 47.7444 48.4251 46.6847 47.2588 46.6847Z" fill="black"/>
<path d="M122.202 46.6847H113.978C113.571 46.6847 113.191 46.9092 112.971 47.2525L111.58 49.5303C111.58 49.5303 119.87 49.5287 119.87 49.5303C120.392 49.5667 120.809 50.0536 120.809 50.6478C120.809 50.656 120.806 55.0004 120.806 55.0004H114.587V53.7493C114.587 53.5017 114.767 53.3019 114.988 53.3019H119.333V51.6926C119.333 51.2981 119.114 51.0769 118.814 51.0769H112.791C112.054 51.0769 111.459 51.7454 111.459 52.5691V56.5404C111.459 56.5586 111.465 56.58 111.473 56.6048C111.554 57.2006 112.014 57.638 112.57 57.638H124.317V49.0517C124.317 47.7444 123.37 46.6847 122.202 46.6847Z" fill="black"/>
<path d="M96.3071 42.7026V46.6871V54.9087H91.1468C90.79 54.9087 90.5408 54.5522 90.5408 54.2583V50.6485C90.5408 50.0295 90.989 49.5311 91.5419 49.5311H94.1516C94.5423 49.5311 94.9418 49.2818 95.1055 48.9765L96.3071 46.6871C96.3071 46.6871 89.0753 46.6887 89.0709 46.6887C87.9061 46.6887 86.9581 47.7468 86.9581 49.0524C86.9581 49.0606 86.9596 49.0656 86.9596 49.0738C86.9596 49.0805 86.9581 55.2008 86.9581 55.6812C86.9581 56.9389 87.8663 57.6388 88.692 57.6388H99.8898V42.7026H96.3071Z" fill="black"/>
<path d="M103.703 46.6864C102.813 46.6864 102.238 47.4573 102.238 48.2842V57.6398H105.821V50.666C105.819 50.0388 106.217 49.5189 106.785 49.5189H109.436C109.821 49.4908 110.155 49.2383 110.359 48.9015C110.369 48.885 111.749 46.6864 111.749 46.6864H103.703Z" fill="black"/>
<path d="M66.5165 50.2488V57.6401H70.0741V46.8123C70.0741 46.8123 68.4228 47.9627 67.2551 48.7781C66.8099 49.0983 66.5165 49.6364 66.5165 50.2488ZM66.5165 42.6924H70.0741V45.4522L66.5165 48.0964V42.6924Z" fill="black"/>
<path d="M31.7994 42.7019H14.6833V57.6381H18.2381V46.188H22.0375C22.4002 46.1946 22.6877 46.5247 22.6877 46.9324H22.6892V57.6381H26.2469V46.9324C26.2469 46.5197 26.5462 46.1863 26.9148 46.1863C26.9163 46.1863 26.9177 46.188 26.9207 46.188H29.7205C30.2601 46.188 30.698 46.6765 30.698 47.2807V57.6381H34.2542V45.4485C34.2542 43.9333 33.1543 42.7019 31.7994 42.7019Z" fill="black"/>
<path d="M82.5309 46.6873C82.4955 46.6873 72.4152 46.6939 72.4152 46.6939V57.639H75.995V49.528H80.0701C80.623 49.528 81.0713 50.0281 81.0713 50.6471H81.0727V57.639H84.6437V49.0526C84.6437 47.747 83.6971 46.6873 82.5309 46.6873Z" fill="black"/>
<path d="M64.1675 49.0496C64.1675 47.744 63.2224 46.6843 62.0547 46.6843C62.0458 46.6843 62.0237 46.6859 62.0222 46.6843H57.375C56.9563 46.6843 56.7543 46.9203 56.5376 47.2818C56.5258 47.3 55.1399 49.5299 55.1399 49.5299H59.6529C60.1866 49.5563 60.6113 50.0465 60.6113 50.649C60.6113 50.654 60.6098 57.6376 60.6098 57.6376H64.1675V49.0496ZM51.5822 42.7031H55.1413V57.6376H51.5822V42.7031Z" fill="black"/>
</g>
</svg>
