<svg width="138" height="100" viewBox="0 0 138 100" fill="none" xmlns="http://www.w3.org/2000/svg">
<path opacity="0.25" d="M82.3076 34.4127C80.7146 35.7158 75.9356 37.5772 73.0307 35.7158L66.2838 31.062L65.1594 31.7136L82.3076 43.534C77.9971 45.2093 73.0307 48.56 69.4699 51.5384L56.7258 42.5102C58.5999 41.1141 63.0041 39.4387 65.909 41.3002L72.7496 46.047L73.6866 45.3955L56.5384 33.482C60.1929 32.1789 66.8461 28.0837 69.3762 25.3845L82.3076 34.4127Z" fill="black"/>
<path opacity="0.25" d="M25.9974 69.6788C26.2761 70.724 26.9262 71.3892 28.7837 71.3892C30.1768 71.3892 30.8269 71.1041 30.8269 70.629C30.8269 69.3937 29.9911 69.3937 24.3257 68.6335C18.7532 67.8733 18.9389 64.2625 18.9389 63.6923C18.9389 58.8462 25.6259 58.8462 27.9478 58.8462C32.1272 58.8462 36.678 60.1765 36.678 63.8824H30.1768C29.9911 63.1222 29.0623 62.362 27.3906 62.362C25.9974 62.362 25.2544 62.6471 25.2544 63.2172C25.2544 64.2625 25.7188 64.1675 31.1984 65.0227C36.7709 65.8779 37.3282 68.6335 37.3282 70.1539C37.3282 75.1901 30.4554 74.905 28.1336 74.905C22.5611 74.905 19.0318 73.6697 18.8461 69.5837H25.9974V69.6788Z" fill="black"/>
<path opacity="0.25" d="M50.3306 58.8462V68.0634C50.3306 69.3937 49.9591 71.0091 46.9871 71.0091C44.0151 71.0091 43.8294 69.3937 43.8294 68.0634V58.8462H38.2569V68.5385C38.2569 73.0996 40.0215 75 47.3586 75C54.6958 75 55.9031 73.0996 55.9031 68.5385V58.8462H50.3306Z" fill="black"/>
<path opacity="0.25" d="M65.9336 70.2489L74.4781 61.8869V61.5068V58.8462H56.8318V62.6471H65.4692L56.8318 71.0091V71.7693V74.0498H74.4781V70.2489H65.9336Z" fill="black"/>
<path opacity="0.25" d="M87.4806 58.8462V68.0634C87.4806 69.3937 87.1091 71.0091 84.1371 71.0091C81.1651 71.0091 80.9794 69.3937 80.9794 68.0634V58.8462H75.4069V68.5385C75.4069 73.0996 76.6142 75 83.9513 75C91.2885 75 93.0531 73.0996 93.0531 68.5385V58.8462H87.4806Z" fill="black"/>
<path opacity="0.25" d="M113.114 58.8462H105.591L99.5543 64.2625V58.8462H93.9818V74.0498H99.5543V68.0634L105.405 74.0498H112.928L104.57 66.0679L113.114 58.8462Z" fill="black"/>
<path opacity="0.25" d="M119.615 58.8462H114.043V74.0498H119.615V58.8462Z" fill="black"/>
</svg>
