<svg width="139" height="100" viewBox="0 0 139 100" fill="none" xmlns="http://www.w3.org/2000/svg">
<path opacity="0.25" d="M22.5658 31.1888C22.5658 31.1888 15.1142 35.2278 15.8872 44.6115C16.659 53.9954 26.4787 62.5002 26.5526 62.7597L26.5821 62.827L20.6533 64.1162C20.6533 64.1162 20.1535 66.9026 18.5431 68.4268L75.5796 55.7397L75.1807 58.2661L80.1349 57.1641L80.6757 54.547L123.55 45.0694L123.074 42.7819L120.819 43.2391L118.489 41.5562C118.489 41.5562 118.07 43.1971 116.41 43.0085C114.617 42.805 114.716 41.6088 114.849 40.4749L115.471 36.2293L109.765 36.2577L109.597 37.5655C107.343 35.8332 104.571 36.1424 104.571 36.1424C98.7679 36.6715 97.5953 41.3579 97.5953 41.3579L91.9306 44.642C91.9306 44.642 91.6442 39.1744 85.4419 39.8656C85.4419 39.8656 81.1585 40.4266 78.1023 43.4335L77.7773 44.8946L70.9128 49.4796C70.9128 49.4796 70.7894 45.7439 66.4873 43.9783C66.0141 43.7822 55.2323 54.5755 53.6333 55.9086C53.6333 55.9086 51.7174 57.3908 49.6508 56.2773L55.5285 50.8923C55.5285 50.8923 52.6423 44.6805 46.3589 47.377C46.3589 47.377 42.2711 48.9884 42.0448 52.9756L31.0075 61.2663C31.0075 61.2663 30.2341 49.3694 42.256 48.467C42.256 48.467 39.6462 45.9238 38.2283 42.6999C38.1767 42.5785 38.2299 42.5075 38.2299 42.5075C38.2299 42.5075 32.7197 44.2119 29.9061 50.0174C29.8651 50.1033 28.0887 53.4378 27.7451 59.2293L27.7357 59.3201C27.7357 59.3201 17.7908 48.4309 26.9885 38.2122C27.0454 38.1499 26.9979 38.1214 26.9979 38.1214C26.9979 38.1214 23.4756 35.0549 22.5654 31.1887L22.5658 31.1888ZM49.2481 51.5212C50.3801 51.2651 50.9225 52.0352 50.9225 52.0352L47.9305 54.7543C46.4639 53.1522 48.2904 51.9423 48.3732 51.8931C48.6974 51.7023 48.9869 51.5804 49.2481 51.5212V51.5212ZM83.9418 43.9371C85.2929 43.6134 85.9511 44.7358 86.0245 44.833C87.3225 46.5387 85.787 47.7939 85.7813 47.7975C84.1802 48.5933 83.1715 47.1441 83.1357 47.0859C81.8367 45.0134 83.6673 44.0277 83.6673 44.0277C83.7635 43.9925 83.8517 43.9587 83.9418 43.9371V43.9371ZM103.202 40.5394C104.475 40.2347 105.101 41.2965 105.17 41.3868C106.393 42.9953 104.937 44.1706 104.932 44.1729C103.423 44.9229 102.479 43.5692 102.445 43.5146C101.222 41.5613 102.941 40.6269 102.941 40.6269C103.032 40.5938 103.117 40.5597 103.202 40.5394V40.5394ZM62.9373 50.3673C62.9373 50.3673 62.9586 50.5062 63.0261 50.5691C64.882 52.2997 62.4943 53.7604 62.4943 53.7604C61.4624 54.0933 61.5974 54.5656 61.5974 54.5656L61.7903 55.4386L55.4529 56.7449L62.9373 50.3673L62.9373 50.3673ZM42.42 55.5368C43.8538 58.2116 47.394 58.3898 47.394 58.3898L35.2105 60.893L42.42 55.5368V55.5368ZM76.9527 48.4908L76.1898 52.3687L70.7023 53.5893C71.3617 52.6821 71.1193 52.0783 71.1193 52.0783L76.9527 48.4908H76.9527ZM97.4977 44.1129C97.9201 46.7095 99.6134 47.5573 99.6134 47.5573L90.6376 49.4505C91.5286 48.8368 91.6536 47.5846 91.6536 47.5846C91.6536 47.5846 97.483 44.0193 97.4977 44.1129L97.4977 44.1129ZM81.4673 50.264C81.7778 50.7522 82.758 51.0407 82.758 51.0407L81.1814 51.4357L81.4673 50.264ZM109.967 44.102C110.412 44.7014 111.529 45.0399 111.529 45.0399L109.213 45.555C109.825 44.829 109.967 44.102 109.967 44.102Z" fill="black"/>
</svg>
