<svg width="138" height="100" viewBox="0 0 138 100" fill="none" xmlns="http://www.w3.org/2000/svg">
<g opacity="0.25">
<path d="M68.9995 20.3167C60.9127 20.3167 54.3565 26.9213 54.3565 35.0698C54.3565 43.2169 60.9127 49.823 68.9995 49.823C77.0868 49.823 83.6435 43.2169 83.6435 35.0698C83.6435 26.9213 77.0873 20.3167 68.9995 20.3167ZM68.9995 48.1576C61.8249 48.1576 56.0077 42.2975 56.0077 35.0698C56.0077 27.8407 61.8244 21.9811 68.9995 21.9811C76.1747 21.9811 81.9913 27.8407 81.9913 35.0698C81.9913 42.2975 76.1747 48.1576 68.9995 48.1576Z" fill="black"/>
<path d="M79.643 41.011L77.5169 38.5097C77.4907 38.4795 77.4597 38.4535 77.4239 38.4324C77.3152 38.3699 77.1874 38.3685 77.082 38.4199C76.7573 38.5746 76.3649 38.5717 76.0302 38.3772C75.7322 38.2052 75.5424 37.915 75.4833 37.5999H75.4838C75.334 36.7972 74.8515 36.0632 74.0948 35.6237L73.1426 35.0703L78.5559 31.9219L77.886 30.7522L71.8027 34.2901L71.0718 33.8655V33.0148L77.1545 29.4763L76.4846 28.3071L71.0718 31.456V30.3487C71.0718 29.4682 70.6817 28.6799 70.0671 28.1486C69.8254 27.9401 69.6718 27.6298 69.6718 27.2834C69.6718 26.8939 69.8654 26.549 70.1615 26.3434C70.2583 26.2771 70.3208 26.1647 70.3208 26.0383C70.3208 25.9965 70.3141 25.9562 70.3017 25.9187L69.2151 22.8136C69.185 22.7228 69.1001 22.6579 69.0005 22.6579C68.9013 22.6579 68.8164 22.7228 68.7864 22.8136L67.7002 25.9187C67.6873 25.9562 67.6807 25.9965 67.6807 26.0383C67.6807 26.1647 67.7436 26.2771 67.8394 26.3434H67.8399C68.1355 26.549 68.3296 26.8939 68.3296 27.2834C68.3296 27.6298 68.1766 27.9401 67.9339 28.1486C67.3188 28.6799 66.9297 29.4687 66.9297 30.3487V31.456L61.5164 28.3071L60.8465 29.4763L66.9297 33.0148V33.866L66.1987 34.2901L60.1155 30.7522L59.446 31.9219L64.8593 35.0703L63.9067 35.6237C63.15 36.0632 62.6674 36.7972 62.5182 37.5999C62.459 37.915 62.2698 38.2052 61.9717 38.3772C61.6365 38.5717 61.2446 38.5746 60.9194 38.4199C60.8136 38.369 60.6862 38.3699 60.578 38.4324C60.5418 38.4535 60.5103 38.48 60.485 38.5097L58.3584 41.0101C58.296 41.0816 58.2826 41.1873 58.3322 41.2757C58.3818 41.3617 58.48 41.4035 58.5725 41.3857L61.7853 40.7795C61.8239 40.7718 61.8626 40.7579 61.8978 40.7372C62.007 40.6733 62.0709 40.5633 62.0805 40.4452C62.1095 40.0849 62.3088 39.7428 62.6436 39.5483C62.9406 39.3763 63.2844 39.3542 63.5853 39.4604C64.3496 39.7313 65.2217 39.677 65.9784 39.2361L66.9306 38.6836V44.9803H68.2705V37.9035L69.0019 37.4784L69.7329 37.9035V44.9799H71.0732V38.6831L72.0249 39.2356C72.7816 39.6766 73.6542 39.7308 74.4186 39.4599C74.7185 39.3533 75.0627 39.3754 75.3603 39.5478C75.695 39.7424 75.8938 40.0844 75.9229 40.4447C75.932 40.5628 75.9963 40.6733 76.1046 40.7367C76.1403 40.7574 76.179 40.7713 76.2176 40.779L79.4299 41.3852C79.5229 41.403 79.6206 41.3612 79.6707 41.2752C79.7188 41.1873 79.705 41.0821 79.643 41.011ZM66.9292 37.1248L65.1426 38.1634C64.7926 38.3671 64.3458 38.246 64.1441 37.8939C63.9424 37.5408 64.0621 37.0907 64.4121 36.887L66.1987 35.848L66.9297 36.2736V37.1248H66.9292ZM68.2691 30.1575C68.2691 29.7502 68.5961 29.4201 69 29.4201C69.4039 29.4201 69.7314 29.7502 69.7314 30.1575V32.2351L69.0005 32.6598L68.2691 32.2351V30.1575ZM69.8411 35.5588L69.0005 36.0473L68.1589 35.5583V34.5798L69.0005 34.0903L69.8411 34.5798V35.5588ZM73.8564 37.8944C73.6542 38.246 73.2065 38.3671 72.857 38.1639L71.0708 37.1243V36.2741L71.8018 35.8485L73.5879 36.8875C73.9379 37.0912 74.0576 37.5408 73.8564 37.8944Z" fill="black"/>
<path d="M97.6125 63.5126H92.7252V53.6688H88.2607V79.35H92.7252V68.0723H97.6125V79.35H102.174V53.6688H97.6125V63.5126Z" fill="black"/>
<path d="M18.0167 53.6688L22.9713 69.4159V79.35H27.9306V68.9057L33.0669 53.6688H28.8933L25.5217 63.674L22.4696 53.6688H18.0167Z" fill="black"/>
<path d="M61.0741 53.6688L58.9356 65.8852L56.4557 53.6688H49.4861V79.35H53.4828V59.9915L56.8934 76.8203H60.6259L63.6509 59.7181V79.35H68.337V53.6688H61.0741Z" fill="black"/>
<path d="M115.777 53.6688H108.874L104.215 79.35H108.346L109.334 73.3742H114.473L115.431 79.35H119.983L115.777 53.6688ZM110.043 69.0931L111.942 57.6074L113.786 69.0931H110.043Z" fill="black"/>
<path d="M75.0367 53.6688L70.3768 79.35H74.5089L75.4978 73.3742H80.6365L81.5949 79.35H86.1461L81.9396 53.6688H75.0367ZM76.2054 69.0931L78.105 57.6074L79.9489 69.0931H76.2054Z" fill="black"/>
<path d="M36.2611 53.6688L31.6012 79.35H35.7337L36.7227 73.3742H41.8608L42.8197 79.35H47.37L43.164 53.6688H36.2611ZM37.4303 69.0931L39.3299 57.6074L41.1733 69.0931H37.4303Z" fill="black"/>
</g>
</svg>
