<svg width="300" height="300" viewBox="0 0 300 300" fill="none" xmlns="http://www.w3.org/2000/svg">
<path d="M38.0712 79.3108C38.3819 80.1203 40.8678 85.4753 43.5712 91.235L48.4808 101.696L47.3 103.626C44.3791 108.359 40.4949 118.228 38.2265 126.852L37.3565 130.214L31.2039 132.394C27.8169 133.608 22.2547 135.569 18.8676 136.784L12.6529 138.963L12.28 149.611C12.0625 155.495 11.9382 160.414 12.0314 160.632C12.1557 160.819 17.6558 162.905 24.3055 165.271L36.3621 169.568L38.6616 176.479C40.7124 182.831 44.2238 190.458 47.3001 195.409L48.4809 197.339L42.9809 209.076L37.5119 220.845L53.9188 237.284L65.6646 231.804L77.3483 226.324L79.9274 227.788C84.7749 230.652 91.7665 233.734 98.4163 236.038L105.097 238.373L109.354 250.484C111.716 257.147 113.736 262.658 113.86 262.782C113.984 262.907 119.111 263 125.264 263H136.388L136.948 261.506C137.227 260.665 139.185 255.092 141.329 249.083L145.182 238.249L148.569 237.346C156.773 235.166 164.976 231.991 170.476 228.909L162.397 205.558C154.38 210.726 144.809 214.525 136.046 216.019C130.36 216.984 119.111 216.984 113.829 215.988C89.7157 211.505 70.9471 195.876 62.2775 173.117C56.7154 158.391 56.7154 140.644 62.2775 125.918C66.0375 115.986 69.9838 109.915 77.4415 102.381C80.611 99.2053 83.998 96.123 85.5828 94.9711C108.267 79.0306 136.575 77.8787 160.16 91.9823C160.16 91.9823 173.801 73.3332 173.615 73.3332C173.49 73.3332 171.843 72.4925 170.01 71.4651C163.764 67.947 155.654 64.6779 147.699 62.4363L144.312 61.4711L140.024 49.2667L135.767 37.0311L124.363 37L112.928 37L104.227 61.5334L101.524 62.3118C94.2213 64.3977 86.4218 67.729 79.8342 71.5896L76.5714 73.4888L68.1194 69.0678C63.4583 66.7016 58.3623 64.0241 56.7775 63.2458L53.8877 61.7825L45.6842 69.815L37.4808 77.9098L38.0712 79.3108Z" fill="white"/>
<path d="M279.228 114.892C270.749 109.339 259.848 107.014 250.157 108.628C246.141 109.339 239.989 111.566 236.546 113.568C232.658 115.828 227.685 120.089 225.135 123.383C223.955 124.964 222.202 127.192 221.31 128.354L219.62 130.453L234.408 130.511C197.814 130.511 167.213 130.317 166.48 130.091C165.269 129.704 164.823 129.252 162.432 125.862C149.969 108.202 127.209 102.843 108.434 113.206C103.43 115.951 97.4371 121.439 94.0901 126.443C85.2286 139.551 84.4955 156.63 92.2095 170.77C94.3452 174.677 100.497 181.554 104.545 184.492C111.463 189.56 119.368 192.078 128.516 192.046C137.314 192.046 144.295 189.948 151.339 185.266C155.037 182.813 160.36 177.486 162.942 173.579C164.185 171.739 165.269 170.512 165.907 170.254C166.417 169.996 197.113 169.834 234.089 169.834L219.939 169.841L221.15 171.455C221.788 172.294 223.318 174.36 224.529 175.975C229.47 182.787 238.236 188.63 246.587 190.697C256.501 193.183 266.35 192.053 275.467 187.404C278.782 185.725 280.089 184.788 283.563 181.528L287.707 177.653L271.578 177.589C257.839 177.557 255.258 177.395 254.461 176.588C253.951 176.072 250.795 170.099 247.448 163.287C242.252 152.794 241.36 150.663 241.583 149.469C241.87 147.693 253.217 124.642 254.333 123.512C254.907 122.931 258.987 122.737 271.514 122.705L287.93 122.672L284.902 119.67C283.245 117.991 280.663 115.828 279.228 114.892ZM145.028 154.596C143.817 159.503 142.733 163.635 142.701 163.797C142.669 163.958 138.525 165.121 133.457 166.38L124.34 168.704L117.36 161.827L110.379 154.886L112.674 145.524L115.001 136.129L133.106 131.48L140.183 138.582L147.227 145.717L145.028 154.596Z" fill="white"/>
</svg>
